<svg id="Layer_1" data-name="Layer 1" xmlns="http://www.w3.org/2000/svg" xmlns:xlink="http://www.w3.org/1999/xlink" viewBox="0 0 225.84 318.78"><defs><radialGradient id="radial-gradient" cx="353.85" cy="773.12" r="24.4" gradientTransform="translate(-274.91 -659.53)" gradientUnits="userSpaceOnUse"><stop offset="0" stop-color="#fce5b8"/><stop offset="0.16" stop-color="#ffdf3f"/><stop offset="0.41" stop-color="#ffe0aa"/><stop offset="0.67" stop-color="#eac43d"/><stop offset="1" stop-color="#e2aa00"/></radialGradient><radialGradient id="radial-gradient-2" cx="373.32" cy="-91.55" r="6.85" gradientTransform="matrix(1, 0, 0, -1, -137.08, 42.98)" xlink:href="#radial-gradient"/><radialGradient id="radial-gradient-3" cx="411.5" cy="-75.12" r="29.08" gradientTransform="matrix(1, 0, 0, -1, -137.08, 42.98)" xlink:href="#radial-gradient"/><radialGradient id="radial-gradient-4" cx="427.34" cy="-75.24" r="3.04" gradientTransform="matrix(1, 0, 0, -1, -137.08, 42.98)" xlink:href="#radial-gradient"/><radialGradient id="radial-gradient-5" cx="418.62" cy="-60.97" r="3.65" gradientTransform="matrix(1, 0, 0, -1, -137.08, 42.98)" xlink:href="#radial-gradient"/><radialGradient id="radial-gradient-6" cx="428.51" cy="-59.55" r="2.29" gradientTransform="matrix(1, 0, 0, -1, -137.08, 42.98)" xlink:href="#radial-gradient"/><radialGradient id="radial-gradient-7" cx="426.11" cy="-52.81" r="5.74" gradientTransform="matrix(1, 0, 0, -1, -137.08, 42.98)" xlink:href="#radial-gradient"/></defs><path d="M62,34.39C58,36.83,33.88,52.25,23.55,81.24,5.14,133,43.92,190.63,75.29,237.38a433.81,433.81,0,0,0,39.51,50.39l20.09-25c9-10.45,82.18-96.73,71.91-164.92a87,87,0,0,0-13-35.77C171.61,28,131.21,22.28,124.92,21.5,116.92,20.5,89.29,17.47,62,34.39Z" transform="translate(0 0.01)" fill="none" stroke="#db0f0f" stroke-miterlimit="10" stroke-width="35"/><path d="M52.41,17.71C47.77,20.59,19.29,38.77,7.11,73c-21.7,61,24,129,61,184.1a510.71,510.71,0,0,0,46.58,59.41L138.39,287c10.61-12.32,96.9-114,84.79-194.45a102.69,102.69,0,0,0-15.33-42.18C181.69,10.12,134.05,3.42,126.68,2.5,117.14,1.33,84.63-2.24,52.41,17.71Z" transform="translate(0 0.01)" fill="none" stroke="#000" stroke-miterlimit="10" stroke-width="3"/><path d="M7.6,108.08l.69-4.25a11.57,11.57,0,0,1,.8-3,3,3,0,0,1,1.54-1.47,5.77,5.77,0,0,1,3.19-.15,3.42,3.42,0,0,1,1.93.77,3.2,3.2,0,0,1,.54,1.92,3.19,3.19,0,0,1,1.43-1.83,4.39,4.39,0,0,1,2.46-.14l1.52.24a6,6,0,0,1,2.4.78,2,2,0,0,1,.9,1.38,12.87,12.87,0,0,1-.25,3.45L24,110.71Zm3.49-3.81,3.64.58a1,1,0,0,1,.06-.42.86.86,0,0,0-.18-.85,5.28,5.28,0,0,0-1.74-.46,2.91,2.91,0,0,0-1.1,0,.61.61,0,0,0-.45.31,2.76,2.76,0,0,0-.23.84Zm5.83,1,4.59.74a1.87,1.87,0,0,0-.1-1.19c-.14-.2-.54-.35-1.21-.45l-1.53-.23a2.25,2.25,0,0,0-1.31,0,2,2,0,0,0-.44,1.14Z" transform="translate(0 0.01)" fill="#fff"/><path d="M23.83,85,22,90l2.77,1a2.9,2.9,0,0,0,1.16.27.53.53,0,0,0,.43-.39.65.65,0,0,0-.1-.68,4,4,0,0,0-1.24-.61L23.36,89l1.32-3.69,1,.33a9.44,9.44,0,0,1,1.77.81,3.79,3.79,0,0,1,1.11,1.18,3.66,3.66,0,0,1,.59,1.79,5.78,5.78,0,0,1-.4,2.25,6.41,6.41,0,0,1-1.14,2,3.62,3.62,0,0,1-1.5,1.12,3.79,3.79,0,0,1-1.63.24,9.2,9.2,0,0,1-2.25-.58l-3.77-1.23A6.85,6.85,0,0,1,16,91.77a3.28,3.28,0,0,1-1-2,6.29,6.29,0,0,1,1.92-5,3.57,3.57,0,0,1,2.19-.9,8.11,8.11,0,0,1,3,.6Zm-3.48,3.2-.94-.33a5.07,5.07,0,0,0-1.32-.36.43.43,0,0,0-.44.33c-.1.28-.08.47.06.6A6.18,6.18,0,0,0,19,89l.94.33Z" transform="translate(0 0.01)" fill="#fff"/><path d="M33.29,52.14l6.15,9.18L44,65.14l-2.57,3.08-4.63-3.83L26.73,60l2.56-3.08q4.35,2.39,5.71,3.36c-1.21-1.33-2.64-3-4.27-5.09Z" transform="translate(0 0.01)" fill="#fff"/><path d="M49.29,47.42l2.26,2.45A14.59,14.59,0,0,1,53.29,52a4,4,0,0,1,.51,1.71,3.64,3.64,0,0,1-.4,1.86A5.9,5.9,0,0,1,52,57.28a7.6,7.6,0,0,1-1.92,1.36,3.12,3.12,0,0,1-1.7.34,3.65,3.65,0,0,1-1.56-.58,11.48,11.48,0,0,1-1.93-1.75l-2.41-2.51a8.06,8.06,0,0,1-1.71-2.46,3.26,3.26,0,0,1-.08-2.26,5.19,5.19,0,0,1,1.56-2.37,6.51,6.51,0,0,1,2-1.32,3.84,3.84,0,0,1,1.87-.26,3.58,3.58,0,0,1,1.48.51A8.71,8.71,0,0,1,49.29,47.42Zm-3.74,2.06a4,4,0,0,0-1-.89.55.55,0,0,0-.69.36.51.51,0,0,0,0,.3,4,4,0,0,0,.8,1l4.17,4.52a3.55,3.55,0,0,0,.94.83.47.47,0,0,0,.55-.11.5.5,0,0,0,.18-.52A3.31,3.31,0,0,0,49.8,54Z" transform="translate(0 0.01)" fill="#fff"/><path d="M59.18,34.14,67,45.27,63.55,47.7l-.59-1a3,3,0,0,1-.28,1.44,3.17,3.17,0,0,1-1,1.12,3.35,3.35,0,0,1-1.45.62A2.24,2.24,0,0,1,59,49.69,3.36,3.36,0,0,1,58,49c-.26-.29-.73-.92-1.4-1.88l-5.27-7.48,3.39-2.38,5.33,7.58a9.77,9.77,0,0,0,1.21,1.51.48.48,0,0,0,.6-.06c.25-.18.35-.37.28-.57A12.78,12.78,0,0,0,61.1,44l-5.31-7.49Z" transform="translate(0 0.01)" fill="#fff"/><path d="M68.71,28.63l.7,1.66a3.08,3.08,0,0,1,1.34-3L73,31.51a3.52,3.52,0,0,0-1.33,1.06,1.3,1.3,0,0,0-.17,1.07,14.9,14.9,0,0,0,1.09,2.28l2.55,4.71-3.65,2-6.45-12Z" transform="translate(0 0.01)" fill="#fff"/><path d="M104.08,21.53l-4.24.83-.55-2.83A5.74,5.74,0,0,0,98.86,18a.61.61,0,0,0-.66-.18c-.35.07-.55.23-.59.5A5.33,5.33,0,0,0,97.78,20l1.51,7.56a5.31,5.31,0,0,0,.44,1.52.59.59,0,0,0,.71.24.64.64,0,0,0,.55-.48,6.78,6.78,0,0,0-.19-1.74l-.41-2,4.24-.84.13.64a13.26,13.26,0,0,1,.34,3.66,3.8,3.8,0,0,1-1.21,2.1A5.62,5.62,0,0,1,101,32a6.54,6.54,0,0,1-3.2-.07,3.38,3.38,0,0,1-2-1.55,12.34,12.34,0,0,1-1.09-3.51l-1-4.75a20,20,0,0,1-.4-2.67,3.76,3.76,0,0,1,.39-1.83A3.92,3.92,0,0,1,95.14,16a6.25,6.25,0,0,1,2.34-1,5.91,5.91,0,0,1,3.23.12,3.58,3.58,0,0,1,2,1.48,11.49,11.49,0,0,1,1,3.29Z" transform="translate(0 0.01)" fill="#fff"/><path d="M119.92,21l.12,3.34A15.1,15.1,0,0,1,120,27a4.08,4.08,0,0,1-.73,1.63,3.58,3.58,0,0,1-1.51,1.15,6.45,6.45,0,0,1-2.17.43A8,8,0,0,1,113.2,30a3.18,3.18,0,0,1-1.51-.86,3.51,3.51,0,0,1-.8-1.45,10.81,10.81,0,0,1-.32-2.59l-.14-3.5a8.44,8.44,0,0,1,.31-3,3.36,3.36,0,0,1,1.41-1.76,5.18,5.18,0,0,1,2.71-.73,6.13,6.13,0,0,1,2.4.33,3.71,3.71,0,0,1,1.58,1,3.93,3.93,0,0,1,.8,1.35A9,9,0,0,1,119.92,21Zm-4.17-.87a5.36,5.36,0,0,0-.16-1.32.58.58,0,0,0-1,0,3.9,3.9,0,0,0-.07,1.32l.22,6.14a3.77,3.77,0,0,0,.16,1.25.57.57,0,0,0,.77.22.69.69,0,0,0,.23-.22,3.7,3.7,0,0,0,.08-1.15Z" transform="translate(0 0.01)" fill="#fff"/><path d="M136.4,17.81,134.62,31.3l-4.17-.55.21-1.11a2.78,2.78,0,0,1-2.67,1,3.33,3.33,0,0,1-1.49-.52,1.93,1.93,0,0,1-.78-1A2.93,2.93,0,0,1,125.5,28a22.7,22.7,0,0,1,.24-2.33l1.19-9.1,4.11.54-1.21,9.18a11.94,11.94,0,0,0-.15,1.89c0,.2.2.32.49.36s.5,0,.58-.23a13.73,13.73,0,0,0,.35-2l1.19-9Z" transform="translate(0 0.01)" fill="#fff"/><path d="M147.71,20.68l-.42,1.17a3.06,3.06,0,0,1,1.39-.73,2.92,2.92,0,0,1,1.55.11,2.67,2.67,0,0,1,1.5,1,2.21,2.21,0,0,1,.44,1.47,11.15,11.15,0,0,1-.59,2.49l-2.93,9.07L144.71,34l2.89-9a9.44,9.44,0,0,0,.44-1.66q0-.33-.39-.45A.53.53,0,0,0,147,23a9.28,9.28,0,0,0-.69,1.77l-2.83,8.81-4-1.27,4.18-13Z" transform="translate(0 0.01)" fill="#fff"/><path d="M164,25.31,163,27.24l1,.49-.94,1.94-1-.49-3.18,6.55a3.73,3.73,0,0,0-.53,1.4c0,.14.36.35,1,.65l-1,2-1.5-.73a12.79,12.79,0,0,1-1.77-1,2.24,2.24,0,0,1-.72-1,1.75,1.75,0,0,1-.09-1.13,14.51,14.51,0,0,1,1-2.37l3-6.22-.8-.39.94-1.93.8.39.94-1.93Z" transform="translate(0 0.01)" fill="#fff"/><path d="M173.19,32.82l-1.11,1.41a3.11,3.11,0,0,1,3.3-.28l-2.61,4a3.59,3.59,0,0,0-1.57-.66,1.27,1.27,0,0,0-1,.36,14.33,14.33,0,0,0-1.48,2.06l-2.93,4.5L162.29,42l7.43-11.41Z" transform="translate(0 0.01)" fill="#fff"/><path d="M187.29,44l-7.37,6.65c-1.16,1.06-2,1.76-2.44,2.1a3.46,3.46,0,0,1-1.4.65,2.62,2.62,0,0,1-1.46-.19,8,8,0,0,1-2.06-1.44l-1.92-1.61,1.42-1.64a4.8,4.8,0,0,0,1,.74.41.41,0,0,0,.49-.15c.07-.08.32-.5.74-1.24L180,37.76l2.84,2.47-5,7.83,6.52-6.5Z" transform="translate(0 0.01)" fill="#fff"/><path d="M205.05,60.14l4.06,6L206.35,68l-1.67-2.49-2.61,1.74,1.47,2.22-2.62,1.76L199.46,69l-5.8,3.87-2.37-3.55Z" transform="translate(0 0.01)" fill="#fff"/><path d="M206.79,79l-1.74-3.48.82-.41a6.44,6.44,0,0,1,2.34-.76,3.33,3.33,0,0,1,2,.63,6.8,6.8,0,0,1,2.61,5.42,2.86,2.86,0,0,1-1.06,2,29,29,0,0,1-3.88,2.19l-6.1,3.07L200,84l1.08-.54a2.82,2.82,0,0,1-1.42-.38,2.71,2.71,0,0,1-1-1.12,3.41,3.41,0,0,1-.35-2.06c.09-.72.75-1.39,2-2l1-.5a3.26,3.26,0,0,1,2.08-.51,7,7,0,0,1,2.22,1.56A6.82,6.82,0,0,0,207.53,80a3,3,0,0,0,1.08-.37,4.31,4.31,0,0,0,1.17-.77.56.56,0,0,0,0-.61c-.12-.25-.28-.37-.48-.35a6.15,6.15,0,0,0-1.3.54Zm-1.08,2a3.07,3.07,0,0,0-1.61-.49,4.83,4.83,0,0,0-1.33.49,3.82,3.82,0,0,0-1.16.74.56.56,0,0,0,0,.63c.12.23.26.34.44.34a3.92,3.92,0,0,0,1.19-.46Z" transform="translate(0 0.01)" fill="#fff"/><path d="M214.17,98.69,213.1,95l1.51-.43a3.43,3.43,0,0,0,1-.44.5.5,0,0,0,.14-.55.47.47,0,0,0-.38-.39,2.89,2.89,0,0,0-1.13.19l-6.18,1.76a2.22,2.22,0,0,0-1,.48.57.57,0,0,0-.2.62.54.54,0,0,0,.52.44,4.93,4.93,0,0,0,1.42-.25l1.56-.44,1,3.55a21.59,21.59,0,0,1-2.38.55,3.8,3.8,0,0,1-1.8-.2,3.5,3.5,0,0,1-1.65-1.1,5.56,5.56,0,0,1-1.06-2.1,5.37,5.37,0,0,1-.18-2.84A3.25,3.25,0,0,1,205.51,92a8.41,8.41,0,0,1,2.84-1.25l3.72-1.06a7.44,7.44,0,0,1,2.61-.38,3.32,3.32,0,0,1,1.92,1,5.89,5.89,0,0,1,1.52,5.32,3.47,3.47,0,0,1-1.25,2A9.16,9.16,0,0,1,214.17,98.69Z" transform="translate(0 0.01)" fill="#fff"/><path d="M214.56,114.29l-.64-5.31-2.93.35a3.33,3.33,0,0,0-1.16.27.48.48,0,0,0-.21.54.61.61,0,0,0,.43.58,3.94,3.94,0,0,0,1.37,0l1.79-.21.45,3.9-1,.12a8.91,8.91,0,0,1-2,.07,4.12,4.12,0,0,1-1.52-.57,3.77,3.77,0,0,1-1.32-1.34,5.6,5.6,0,0,1-.64-2.19,6.58,6.58,0,0,1,.09-2.34,3.58,3.58,0,0,1,2.2-2.61,9.85,9.85,0,0,1,2.28-.48l3.94-.46a6.85,6.85,0,0,1,2.85.15,3.32,3.32,0,0,1,1.73,1.4,5.64,5.64,0,0,1,.84,2.45,5.74,5.74,0,0,1-.32,2.93,3.71,3.71,0,0,1-1.56,1.78,8.27,8.27,0,0,1-3,.81Zm1.72-4.38,1-.12a5.22,5.22,0,0,0,1.35-.27.59.59,0,0,0,.15-.81.57.57,0,0,0-.22-.19,5.64,5.64,0,0,0-1.42.06l-1,.12Z" transform="translate(0 0.01)" fill="#fff"/><circle cx="113.29" cy="113.6" r="68.37" fill="#0b0bce"/><path d="M95.64,119.45a29.1,29.1,0,0,1-2.59-2.5c-.49-.63-1.41-.8-1.9-1.06s-3.69-1.26-4.49-.76-1.82.88-2.23,0-.6-1-1.17-1.15-.28-.8-.32-1.39-.37-1.23-.77-.81-1.78,1.53-2,1-1.18-2.84.28-3.26a3.48,3.48,0,0,1,3,.21c.36.38.64,1.44,1.09,1.31s.2-.94.36-1.61,1.22-1.56,1.7-2.5.57-1.48,1.17-1.74a7.13,7.13,0,0,0,1.5-1c.58-.36,1.18-.7,1.79-1a4.82,4.82,0,0,1,2.23-.81c.49.13.81,0,.41-.76s-.93-2.88-1.7-3.86a6,6,0,0,1-1.21-2.16c-.37-.93-.77-1.74-1.06-1.1s-.88,1.49-1.21.67-.28-.76-.69-1.14a2.63,2.63,0,0,0-1.29-.64c-.56-.17-1.13,0-1.09.6s-.53,1.53-.16,2.25.69,1.49.2,1.74,0,1.78-.49,1.73-.72,0-.72-.51.24-1.39-.65-1.39a3.35,3.35,0,0,1-2.07-.93c-.64-.47-1.17-.22-1-1.28s-.07-1.44.65-2,.89-.93,1.42-.68.88.26,1.21,0,.93-.17.93-.55-.69-.38-.6-1,.4-.3.52-1.36-.77-2.67-1.66-2.46-2.26,1.45-2.54.89-.86-.29-2,.09-5.62-.38-5.94-.77c0,0-.77-.54-1.18-.25a5.6,5.6,0,0,1-2.51.09c-.49-.09-.93.54-1.53.34a24.74,24.74,0,0,1-3.24-1c-.49-.34-1.22-.34-1.53-.51s-1.51-.25-1.74.08c-.49.48-1,.93-1.53,1.36s-1,.35-.52,1.24-1.14,1.44-.73,2.41-.09,3.6,1.53,4.11,3,.8,3.88,0,2.35-.76,2.8.09.69,2.11,2.14,2.83,2.71,2.81,2.63,3.74,0,4,1.53,5.81,3,5,3.15,4.24.13-1.53.46-1,1.17,2.25,2.54,2.54,2.07.38,2.59.9a4.82,4.82,0,0,0,1.54,1.06,6.54,6.54,0,0,1,2.22,1.53,2.41,2.41,0,0,1-.12,2,2.66,2.66,0,0,0-.21,2.25c.41.72,1.26,2.8,2,3.26a2.37,2.37,0,0,1,1.18,2.26,61.26,61.26,0,0,0-.85,6.61c.09,1-.92,4.36-.12,5.72a3,3,0,0,0,2.8,1.61c.6-.17.12-.21-.17-.85a2.37,2.37,0,0,1,.08-2,1.9,1.9,0,0,0,.17-1.61,1.56,1.56,0,0,1,.32-1.57c.41-.51,2.11-1.86,2.63-2.46s3.85-4.66,4.29-5a4.77,4.77,0,0,0,1.78-2.45c.33-1.28,1.5-3.78.69-4.42S95.76,119.53,95.64,119.45Z" transform="translate(0 0.01)" fill="url(#radial-gradient)"/><path d="M103.73,83.18c.23-.45.79-1.58,1.09-2.2H92a20.85,20.85,0,0,1,.61,4.23c-.13,1.19.24.77.56,1.24a2,2,0,0,1,0,1.73,4.52,4.52,0,0,0,.33,3.23c.64,1.44,1.41,3.26,2.06,3.34s.49,1,.94.68.52-1.1.89-2.2.36-1.91,1.29-2.46a29.13,29.13,0,0,0,4.08-3c.57-.64,1.22-.89,1-2A4.57,4.57,0,0,1,103.73,83.18Z" transform="translate(0 0.01)" fill="url(#radial-gradient-2)"/><path d="M166.83,88.68c-.49-.34-3.4-2.67-4.66-2.37s-3.47-.68-3.84-.9a19,19,0,0,0-4.93-1.18,27.1,27.1,0,0,1-5.48-1.35c-1.38-.6-2.55-3.52-5.17-3.06-.34.07-3.52.51-4.33,1.24s-1.17,1.56-1.62,1.73-1.74.09-1.74.72.45,2.59-.07,2.21-1.06-1.27-1.3-.6-.65,1.07-.89.81a1.52,1.52,0,0,0-1.62.42,5.34,5.34,0,0,1-2.42,1.53,3.77,3.77,0,0,0-1.34.64c-.36.17-3.12,1.44-3.64,1s-.68-.16-1-.08a3,3,0,0,1-1.57-.93c-.61-.76-.73-.51-1.42-1.23s-.85-1.44-1.52-1.14a33.53,33.53,0,0,0-4.73,4.65c-1.14,1.35-3.15,2.76-2.14,3.73s1.54.85,1.66,1.4a5,5,0,0,0,.41,1.36c.16.21,1.13,1,1.61,0s.57-1.73,1.14-1.56.68.55.4,1.31-.48,2-1.46,1.91-2-.64-2.35-.51-.51.42-.88.72-1.5,1.69-2.27,1.9-1.69,0-1.17.68,1.29,2,.57,2-1.94-.17-2,.55-.41,1.15-.25,1.66.69,1.48,1.33,1.14,1.91-.68,2.23-1.44.69-1.61,1.5-1.57,2.75,1.1,2.63,1.49-.52,1.27,0,1,.89-.64,1.17-.76.65.42.77.63.93.64,1.09,0,.33-.17.81,0a17.72,17.72,0,0,1,2.14.56.88.88,0,0,1,.2,1.21l-.12.14a1.53,1.53,0,0,1-2.1.46h0c-.94-.51-2,.42-3-.09s-.57-1.23-1.83-1.73-4.08.12-5,.37-.93.35-1.29.77-2.75,3.17-2.75,4.74.88,5.81,3.76,5.39,4.61-.18,4.29.67-.16,1.06.36,2,1.74,7.45,1.94,8.51-.16,2.42,1.18,2.2,2.75-.54,3.31-1.77.66-2.63,1.38-3.35,1.62-.72,1.7-1.74-.2-3.43.28-4,2.75-3.09,3-4.11.57-1.27-.36-1.27-2.51-.12-3-1a17.86,17.86,0,0,1-1.49-2.84c0-.38.64-.34,1,.47s1.46,3.22,2.75,2.7,3.12-1.09,3.16-1.9-.57-1.74-1.22-1.69-1.36-.51-1.36-1,.11-.29.88,0,1,.8,2.19.89,2.51,1.23,3.15,1.74,1.78,4,2.07,4.32.61.34.89-.34a14,14,0,0,1,2.18-3.44c.69-.59.73-1.39,1.13-.88S139.9,114.2,140,115s-.08,2.42.28,1.91.65-1.57,1-1.1.33,1.19,1.1.64,2.1-.77,1.37-2-.24-1.91.21-2,3.48-.6,3.56-2.26-1-2.54-.51-3.39,1.28-1.61,1.45-1.1-.41,2.16.32,1.91,1.58-.25,1.58-.77-.17-1.78.16-2.11,2.71-2.59,3-3.48.81-1.65.36-2.33-1.21-.47-.6-1.31a4,4,0,0,1,2.39-1.7c2.45-.21,1.76,2.83,1.8,3.5s0,2.38.41,1.53a7.59,7.59,0,0,1,1.51-2.61c.73-.72,1.13-1.18,1.18-1.82s.07-.85.77-1.19,3.72-1.52,4-2.33-.36-1.53.36-1.48,1.42.85,1.78.42,1.18-1.18,1.13-1.6S167.29,89,166.83,88.68Z" transform="translate(0 0.01)" fill="url(#radial-gradient-3)"/><path d="M153.77,102.92a10.57,10.57,0,0,0-.73,1.78,6.24,6.24,0,0,1-.61,1.57c-.36.72-1,.8-1.58,1.27a2.42,2.42,0,0,0-.77,1.4c-.52.72,2.15-1,3.07-1.57s.7-1.19.78-2.08a1.65,1.65,0,0,1,.72-1.4c.4-.38.08-1.14-.11-1.69S154,102.37,153.77,102.92Z" transform="translate(0 0.01)" fill="url(#radial-gradient-4)"/><path d="M145.46,122.14c.28-.21.07-.68.52-.59s.84.34,1.38,0,1-.17.89-.67,0-1.19-.12-1.61-.85-.56-1.38-.09-1.25,1.19-1.25.93.32-.93.16-1.35.08-.8-.73-.47-1.25.26-1.53.73-.61,1.27-1.09.76a23.76,23.76,0,0,0-1.91-1.57c-.11-.13-1.73-1.44-1.16-.55s1.41,2.42,1.82,3,.84,1.19,1.33.89.57-.38,1.22,0S145.19,122.37,145.46,122.14Z" transform="translate(0 0.01)" fill="url(#radial-gradient-5)"/><path d="M155.39,121c-.78-.34-.45-.64-1.38-.81s-1.7,0-1.95-.16-1.45-.6-1.29,0,1.25.76,1.53.93-.4.55.12.84.89.85,1.58.68.93.21,1.49.3,1.14-.09.9-.34a1.19,1.19,0,0,1-.36-.89C156.07,121.23,156.15,121.31,155.39,121Z" transform="translate(0 0.01)" fill="url(#radial-gradient-6)"/><path d="M155,124.75c-.28-.85-1-2.41-1.13-1.66a2,2,0,0,1-1.66,1.27c-.37,0-.16-.42-.16-.76s-.22-.68-1.14-.43-1.13,1.15-1.38,1.07a1.14,1.14,0,0,0-1.29.21c-.4.47-.77,1.36-1.25,1.53s-2.11.38-2.11,1.06.41,1.69.37,2.25-.78,1.82.2,2.2a1.7,1.7,0,0,0,1.62-.08c.65-.34,3.44-1.23,3.8-.94s1,1,1.22,1.15c.51.3.65,1,1.34,1.18a8.45,8.45,0,0,0,1.49.26,2.15,2.15,0,0,0,1.54-.94c.24-.6.69-2,.89-2.67a1.86,1.86,0,0,0-.2-2A9.23,9.23,0,0,1,155,124.75Z" transform="translate(0 0.01)" fill="url(#radial-gradient-7)"/><path d="M70.92,51c-3.23,2-23,14.6-31.43,38.32-15.06,42.27,16.65,89.47,42.32,127.71a353.14,353.14,0,0,0,32.32,41.21l16.43-20.45c7.36-8.54,67.25-79.11,58.85-134.84a71.3,71.3,0,0,0-10.64-29.26c-18.15-27.9-51.19-32.55-56.3-33.19C115.85,39.67,93.29,37.19,70.92,51Z" transform="translate(0 0.01)" fill="none" stroke="#000" stroke-miterlimit="10" stroke-width="3"/><text transform="translate(75.16 207.16)" font-size="24" font-family="Impact" letter-spacing="0.1em">1inOne</text></svg>