<svg id="Layer_1" data-name="Layer 1" xmlns="http://www.w3.org/2000/svg" xmlns:xlink="http://www.w3.org/1999/xlink" viewBox="0 0 224 311.53"><defs><radialGradient id="radial-gradient" cx="214.5" cy="205.6" r="24.39" gradientUnits="userSpaceOnUse"><stop offset="0" stop-color="#fce5b8"/><stop offset="0.16" stop-color="#ffdf3f"/><stop offset="0.41" stop-color="#ffe0aa"/><stop offset="0.67" stop-color="#eac43d"/><stop offset="1" stop-color="#e2aa00"/></radialGradient><radialGradient id="radial-gradient-2" cx="233.97" cy="180.75" r="6.85" xlink:href="#radial-gradient"/><radialGradient id="radial-gradient-3" cx="272.09" cy="197.67" r="29.11" xlink:href="#radial-gradient"/><radialGradient id="radial-gradient-4" cx="287.99" cy="197.56" r="3.04" xlink:href="#radial-gradient"/><radialGradient id="radial-gradient-5" cx="279.27" cy="211.82" r="3.65" xlink:href="#radial-gradient"/><radialGradient id="radial-gradient-6" cx="289.16" cy="213.25" r="2.29" xlink:href="#radial-gradient"/><radialGradient id="radial-gradient-7" cx="286.76" cy="219.98" r="5.74" xlink:href="#radial-gradient"/></defs><path d="M197.54,126.4c-3.95,2.44-28.1,17.86-38.42,46.85-18.42,51.69,20.35,109.42,51.74,156.14a435.61,435.61,0,0,0,39.51,50.39l20.09-25c9-10.44,82.18-96.73,71.91-164.91a87,87,0,0,0-13-35.77c-22.19-34.12-62.59-39.8-68.84-40.58C252.43,112.51,224.84,109.48,197.54,126.4Z" transform="translate(-136.85 -95.15)" fill="none" stroke="#fcfcfc" stroke-miterlimit="10" stroke-width="35"/><path d="M143.16,200.09l.68-4.25a11.37,11.37,0,0,1,.8-3,3.13,3.13,0,0,1,1.54-1.48,5.82,5.82,0,0,1,3.19-.14,3.36,3.36,0,0,1,1.93.77,3.18,3.18,0,0,1,.58,1.92,3.22,3.22,0,0,1,1.43-1.83,4.35,4.35,0,0,1,2.46-.14l1.52.24a6.08,6.08,0,0,1,2.4.78,2,2,0,0,1,.9,1.38,12.21,12.21,0,0,1-.25,3.45l-.79,4.93Zm3.49-3.81,3.64.58q0-.27.06-.42c.07-.42,0-.71-.18-.85a5.17,5.17,0,0,0-1.74-.46,3,3,0,0,0-1.1,0,.67.67,0,0,0-.45.31A3,3,0,0,0,146.65,196.28Zm6.19,1,4.59.74a1.85,1.85,0,0,0-.1-1.2,2,2,0,0,0-1.21-.44l-1.52-.25c-.71-.11-1.14-.11-1.32,0A2.07,2.07,0,0,0,152.84,197.27Z" transform="translate(-136.85 -95.15)"/><path d="M159.4,177,157.59,182l2.77,1a3,3,0,0,0,1.16.27.52.52,0,0,0,.43-.39.64.64,0,0,0-.12-.71,3.74,3.74,0,0,0-1.24-.61l-1.69-.61,1.33-3.7.94.34a8.91,8.91,0,0,1,1.77.81,3.86,3.86,0,0,1,1.11,1.18,3.66,3.66,0,0,1,.59,1.79,5.57,5.57,0,0,1-.4,2.24,6.52,6.52,0,0,1-1.13,2.06,3.79,3.79,0,0,1-1.51,1.12A3.85,3.85,0,0,1,160,187a9.27,9.27,0,0,1-2.25-.58L154,185.11a6.83,6.83,0,0,1-2.49-1.41,3.33,3.33,0,0,1-1-2,5.55,5.55,0,0,1,.33-2.56,5.61,5.61,0,0,1,1.59-2.48,3.66,3.66,0,0,1,2.19-.91,8.2,8.2,0,0,1,3,.61Zm-3.49,3.16-.94-.33a5,5,0,0,0-1.32-.36.44.44,0,0,0-.44.33c-.1.27-.08.47.06.59a5.23,5.23,0,0,0,1.3.58l.93.33Z" transform="translate(-136.85 -95.15)"/><path d="M168.81,144.12,175,153.3l4.64,3.82-2.55,3.09-4.63-3.83L162.32,152l2.53-3.06q4.34,2.39,5.71,3.36c-1.22-1.31-2.64-3-4.28-5.09Z" transform="translate(-136.85 -95.15)"/><path d="M184.85,139.43l2.26,2.45a14.49,14.49,0,0,1,1.69,2.1,3.76,3.76,0,0,1,.51,1.71,3.51,3.51,0,0,1-.4,1.86,6.12,6.12,0,0,1-1.36,1.74,7.75,7.75,0,0,1-1.91,1.36,3.22,3.22,0,0,1-1.71.33,3.66,3.66,0,0,1-1.56-.57,11.61,11.61,0,0,1-1.93-1.75l-2.36-2.56a8.46,8.46,0,0,1-1.71-2.46,3.42,3.42,0,0,1-.08-2.26,5.18,5.18,0,0,1,1.56-2.32,6.09,6.09,0,0,1,2-1.32,3.86,3.86,0,0,1,1.87-.26,3.76,3.76,0,0,1,1.48.51A8.3,8.3,0,0,1,184.85,139.43Zm-3.74,2.06a4.38,4.38,0,0,0-1-.89.47.47,0,0,0-.54.13.48.48,0,0,0-.17.53,4.06,4.06,0,0,0,.8,1.05l4.17,4.51a4.25,4.25,0,0,0,.94.84.48.48,0,0,0,.56-.11.47.47,0,0,0,.17-.53,3.39,3.39,0,0,0-.69-.92Z" transform="translate(-136.85 -95.15)"/><path d="M194.74,126.16l7.82,11.13-3.45,2.42-.59-1a2.78,2.78,0,0,1-.28,1.45,3,3,0,0,1-1,1.12,3.38,3.38,0,0,1-1.45.62,2.17,2.17,0,0,1-1.25-.19,3.36,3.36,0,0,1-.94-.72,22.78,22.78,0,0,1-1.41-1.88l-5.27-7.51,3.39-2.38,5.32,7.58a9.82,9.82,0,0,0,1.16,1.49.49.49,0,0,0,.6-.06c.26-.18.35-.37.28-.57a12,12,0,0,0-1.07-1.67l-5.26-7.49Z" transform="translate(-136.85 -95.15)"/><path d="M204.27,120.66l.7,1.65a3.08,3.08,0,0,1,1.34-3l2.27,4.22a3.5,3.5,0,0,0-1.33,1.06,1.33,1.33,0,0,0-.17,1.07,15.83,15.83,0,0,0,1.09,2.28l2.55,4.73-3.65,2-6.45-12Z" transform="translate(-136.85 -95.15)"/><path d="M239.64,113.54l-4.24.83-.55-2.83a5.49,5.49,0,0,0-.44-1.52.61.61,0,0,0-.66-.19c-.35.07-.55.24-.59.51a5.55,5.55,0,0,0,.17,1.63l1.49,7.57a5.16,5.16,0,0,0,.45,1.52.59.59,0,0,0,.7.24.6.6,0,0,0,.55-.48,6.3,6.3,0,0,0-.19-1.74l-.4-2,4.23-.84.13.64a12.66,12.66,0,0,1,.34,3.65,3.72,3.72,0,0,1-1.21,2.17,5.54,5.54,0,0,1-2.86,1.39,6.42,6.42,0,0,1-3.2-.07,3.35,3.35,0,0,1-2-1.56,12.58,12.58,0,0,1-1.09-3.51l-.94-4.75a23.18,23.18,0,0,1-.4-2.67,3.9,3.9,0,0,1,.39-1.84,4.12,4.12,0,0,1,1.41-1.61,7,7,0,0,1,5.58-.83,3.6,3.6,0,0,1,1.95,1.49,11,11,0,0,1,1,3.29Z" transform="translate(-136.85 -95.15)"/><path d="M255.51,113l.12,3.33a13,13,0,0,1-.09,2.7,3.73,3.73,0,0,1-.73,1.63,3.55,3.55,0,0,1-1.51,1.15,6.25,6.25,0,0,1-2.17.43,7.78,7.78,0,0,1-2.33-.22,3.22,3.22,0,0,1-1.52-.86,3.65,3.65,0,0,1-.8-1.45,11,11,0,0,1-.32-2.59l-.13-3.48a8.59,8.59,0,0,1,.31-3,3.4,3.4,0,0,1,1.41-1.76,5.19,5.19,0,0,1,2.71-.75,6.37,6.37,0,0,1,2.41.33,4,4,0,0,1,1.58,1,3.92,3.92,0,0,1,.79,1.35A8.33,8.33,0,0,1,255.51,113Zm-4.17-.87a4.84,4.84,0,0,0-.16-1.32.46.46,0,0,0-.49-.25.49.49,0,0,0-.49.29,4.21,4.21,0,0,0-.07,1.32l.22,6.14a3.93,3.93,0,0,0,.16,1.25.48.48,0,0,0,.5.27.47.47,0,0,0,.47-.28,3.27,3.27,0,0,0,.08-1.15Z" transform="translate(-136.85 -95.15)"/><path d="M272,109.82l-1.77,13.49-4.18-.55.22-1.11a2.94,2.94,0,0,1-1.19.88,3,3,0,0,1-1.48.15,3.28,3.28,0,0,1-1.5-.52,2.12,2.12,0,0,1-.78-1,3.15,3.15,0,0,1-.22-1.17c0-.39.09-1.17.24-2.33l1.2-9.1,4.1.54-1.2,9.18a9.38,9.38,0,0,0-.15,1.88c0,.21.2.33.48.37s.5,0,.58-.23a11.59,11.59,0,0,0,.35-2l1.19-9.07Z" transform="translate(-136.85 -95.15)"/><path d="M283.27,112.69l-.45,1.17a3.11,3.11,0,0,1,1.4-.73,2.92,2.92,0,0,1,1.54.1,2.87,2.87,0,0,1,1.51,1,2.27,2.27,0,0,1,.44,1.47,12.7,12.7,0,0,1-.6,2.49l-2.93,9.07L280.24,126l2.89-9a8.17,8.17,0,0,0,.44-1.66q0-.31-.39-.45a.52.52,0,0,0-.64.17,9.51,9.51,0,0,0-.69,1.76L279,125.62l-3.94-1.27,4.17-12.95Z" transform="translate(-136.85 -95.15)"/><path d="M299.54,117.32l-.94,1.93,1,.49-.94,1.93-1-.48-3.18,6.55a3.88,3.88,0,0,0-.53,1.4c0,.13.36.35,1,.64l-1,2-1.5-.73a10.86,10.86,0,0,1-1.76-1,2.22,2.22,0,0,1-.73-.95,1.85,1.85,0,0,1-.09-1.13,17.67,17.67,0,0,1,1-2.37l3-6.22-.8-.39.94-1.93.81.39.93-1.93Z" transform="translate(-136.85 -95.15)"/><path d="M308.75,124.83l-1.11,1.41a3.09,3.09,0,0,1,3.3-.28l-2.61,4a3.42,3.42,0,0,0-1.57-.66,1.31,1.31,0,0,0-1,.36,15.51,15.51,0,0,0-1.48,2l-2.93,4.51L297.86,134l7.42-11.41Z" transform="translate(-136.85 -95.15)"/><path d="M322.83,136l-7.34,6.66c-1.17,1-2,1.75-2.45,2.1a3.4,3.4,0,0,1-1.4.65,2.62,2.62,0,0,1-1.46-.19,8.48,8.48,0,0,1-2.06-1.45l-1.9-1.64,1.43-1.64a4.67,4.67,0,0,0,1,.74.41.41,0,0,0,.49-.15,12.81,12.81,0,0,0,.74-1.24l5.75-10.09,2.84,2.47-5,7.83L320,133.5Z" transform="translate(-136.85 -95.15)"/><path d="M340.62,152.11l4.05,6.08L341.91,160l-1.66-2.5-2.62,1.75,1.48,2.22-2.63,1.75L335,161l-5.8,3.87-2.4-3.59Z" transform="translate(-136.85 -95.15)"/><path d="M342.35,171l-1.74-3.48.82-.41a6.45,6.45,0,0,1,2.34-.76,3.37,3.37,0,0,1,2,.63,6.8,6.8,0,0,1,2.61,5.42,2.86,2.86,0,0,1-1.05,2,29.83,29.83,0,0,1-3.89,2.19l-6.11,3.06-1.8-3.61,1.08-.54a2.56,2.56,0,0,1-2.38-1.5,3.58,3.58,0,0,1-.35-2.06c.09-.72.76-1.39,2-2l1-.5a3.34,3.34,0,0,1,2.08-.5,6.94,6.94,0,0,1,2.23,1.56,6.58,6.58,0,0,0,1.94,1.47,3,3,0,0,0,1.07-.37,4,4,0,0,0,1.17-.77.56.56,0,0,0,.05-.62c-.12-.25-.28-.36-.47-.34a5.42,5.42,0,0,0-1.31.54Zm-1.08,2a3,3,0,0,0-1.6-.49,4.85,4.85,0,0,0-1.34.49,4.06,4.06,0,0,0-1.16.74.54.54,0,0,0,0,.62c.12.24.27.35.44.35a4,4,0,0,0,1.19-.46Z" transform="translate(-136.85 -95.15)"/><path d="M349.73,190.7l-1.06-3.76,1.5-.43a3.15,3.15,0,0,0,1-.43.48.48,0,0,0,.14-.55.49.49,0,0,0-.37-.4,3.45,3.45,0,0,0-1.14.2l-6.18,1.76a2.59,2.59,0,0,0-1,.47.61.61,0,0,0-.2.63.56.56,0,0,0,.52.44,4.5,4.5,0,0,0,1.42-.25l1.56-.44,1,3.55a21,21,0,0,1-2.38.55,3.88,3.88,0,0,1-1.8-.2,3.7,3.7,0,0,1-1.65-1.1,5.44,5.44,0,0,1-1.05-2.1,5.6,5.6,0,0,1-.19-2.84,3.36,3.36,0,0,1,1.22-1.85A8.67,8.67,0,0,1,344,182.7l3.72-1.06a7.44,7.44,0,0,1,2.61-.38,3.33,3.33,0,0,1,1.92,1,5.92,5.92,0,0,1,1.52,5.32,3.42,3.42,0,0,1-1.25,1.95A9.18,9.18,0,0,1,349.73,190.7Z" transform="translate(-136.85 -95.15)"/><path d="M350.12,206.3,349.5,201l-2.93.34a3.71,3.71,0,0,0-1.16.27.51.51,0,0,0-.21.54.63.63,0,0,0,.43.59,3.78,3.78,0,0,0,1.38,0l1.78-.21.46,3.9-1,.12a9.14,9.14,0,0,1-1.95.07,4.23,4.23,0,0,1-1.52-.57,3.77,3.77,0,0,1-1.32-1.34,5.79,5.79,0,0,1-.64-2.19,6.45,6.45,0,0,1,.11-2.35,3.63,3.63,0,0,1,.85-1.67,3.7,3.7,0,0,1,1.36-.94,8.65,8.65,0,0,1,2.27-.48l3.94-.47a6.86,6.86,0,0,1,2.85.16,3.32,3.32,0,0,1,1.75,1.38,5.58,5.58,0,0,1,.84,2.44,5.71,5.71,0,0,1-.32,2.94,3.65,3.65,0,0,1-1.56,1.78,8.12,8.12,0,0,1-3,.81Zm1.72-4.38,1-.12a4.91,4.91,0,0,0,1.34-.27.44.44,0,0,0,.25-.49c0-.29-.14-.46-.32-.5a5.23,5.23,0,0,0-1.41.06l-1,.11Z" transform="translate(-136.85 -95.15)"/><path d="M218.64,280.91v16.61H214.5v-8.9a16,16,0,0,0-.09-2.32.85.85,0,0,0-.51-.59,5.34,5.34,0,0,0-1.85-.2h-.41v-1.94a7.49,7.49,0,0,0,4.56-2.66Z" transform="translate(-136.85 -95.15)" fill="#fcfcfc"/><path d="M228.72,280.91v2.17h-4.27v-2.17Zm0,3v13.61h-4.27V283.91Z" transform="translate(-136.85 -95.15)" fill="#fcfcfc"/><path d="M238.62,283.91l-.07,1.25a3.11,3.11,0,0,1,1.1-1.12,2.93,2.93,0,0,1,1.5-.38,2.86,2.86,0,0,1,1.75.51,2.21,2.21,0,0,1,.87,1.26A11.67,11.67,0,0,1,244,288v9.54h-4.14v-9.43a9,9,0,0,0-.09-1.71c-.06-.21-.24-.31-.52-.31a.51.51,0,0,0-.55.36,8.55,8.55,0,0,0-.11,1.89v9.2h-4.14V283.91Z" transform="translate(-136.85 -95.15)" fill="#fcfcfc"/><path d="M259.57,290.63c0,1.67,0,2.85-.11,3.55a4,4,0,0,1-.74,1.9A4,4,0,0,1,257,297.4a6,6,0,0,1-2.46.46,6.21,6.21,0,0,1-2.39-.43,4,4,0,0,1-2.48-3.21,35.9,35.9,0,0,1-.12-3.59v-2.84q0-2.49.12-3.54a3.9,3.9,0,0,1,.73-1.9,4,4,0,0,1,1.68-1.32,6,6,0,0,1,2.46-.46A6.21,6.21,0,0,1,257,281a4,4,0,0,1,2.48,3.21,35.8,35.8,0,0,1,.12,3.58Zm-4.31-5.45a5.3,5.3,0,0,0-.13-1.48.51.51,0,0,0-.53-.32.59.59,0,0,0-.52.26,3.68,3.68,0,0,0-.18,1.54v7.75a7.55,7.55,0,0,0,.12,1.79.52.52,0,0,0,.55.33.53.53,0,0,0,.56-.38,7.63,7.63,0,0,0,.13-1.86Z" transform="translate(-136.85 -95.15)" fill="#fcfcfc"/><path d="M269.48,283.91l-.08,1.25a3.13,3.13,0,0,1,1.11-1.12,2.93,2.93,0,0,1,1.5-.38,2.81,2.81,0,0,1,1.74.51,2.21,2.21,0,0,1,.87,1.26,11.51,11.51,0,0,1,.2,2.55v9.54h-4.14v-9.43a8.6,8.6,0,0,0-.1-1.71c-.06-.21-.23-.31-.51-.31a.51.51,0,0,0-.55.36,8.28,8.28,0,0,0-.12,1.89v9.2h-4.14V283.91Z" transform="translate(-136.85 -95.15)" fill="#fcfcfc"/><path d="M289.83,291h-5.37v2.95a3.22,3.22,0,0,0,.14,1.19.52.52,0,0,0,.51.26.63.63,0,0,0,.63-.35,3.78,3.78,0,0,0,.16-1.37v-1.8h3.93v1a9.41,9.41,0,0,1-.16,1.94,4,4,0,0,1-.75,1.44,3.59,3.59,0,0,1-1.48,1.16,5.87,5.87,0,0,1-2.25.38,6.64,6.64,0,0,1-2.32-.38,3.66,3.66,0,0,1-1.56-1,3.71,3.71,0,0,1-.77-1.45,9.13,9.13,0,0,1-.22-2.32v-4a6.82,6.82,0,0,1,.48-2.82,3.32,3.32,0,0,1,1.58-1.58,6.34,6.34,0,0,1,5.4.11,3.6,3.6,0,0,1,1.59,1.76,8.3,8.3,0,0,1,.46,3.07Zm-4.16-2.21v-1a5.25,5.25,0,0,0-.11-1.36.45.45,0,0,0-.46-.31c-.29,0-.47.09-.53.26a5.29,5.29,0,0,0-.11,1.41v1Z" transform="translate(-136.85 -95.15)" fill="#fcfcfc"/><circle cx="112" cy="110.45" r="68.37"/><path d="M231.2,211.46a30.59,30.59,0,0,1-2.59-2.5c-.48-.64-1.41-.8-1.9-1.06s-3.71-1.32-4.49-.76-1.82.88-2.23,0-.6-1-1.17-1.15-.28-.8-.32-1.4-.36-1.23-.77-.8-1.78,1.53-2,1-1.18-2.84.28-3.26a3.47,3.47,0,0,1,3,.21c.36.38.64,1.44,1.09,1.31s.2-.94.36-1.61,1.22-1.57,1.7-2.5.57-1.48,1.17-1.74a6,6,0,0,0,1.5-1c.57-.42,1.46-.8,1.79-1a5.15,5.15,0,0,1,2.26-.8c.48.13.8,0,.4-.76s-.93-2.88-1.7-3.86a6.32,6.32,0,0,1-1.21-2.16c-.36-.94-.77-1.74-1.06-1.1s-.88,1.48-1.21.67-.28-.76-.69-1.14a2.71,2.71,0,0,0-1.29-.64c-.56-.17-1.13,0-1.09.6s-.53,1.53-.16,2.25.69,1.49.2,1.74,0,1.78-.48,1.73-.73.05-.73-.51.24-1.39-.65-1.39a3.32,3.32,0,0,1-2.06-.94c-.65-.46-1.18-.21-1-1.27s-.07-1.44.65-2,.89-.94,1.42-.68a1,1,0,0,0,1.22,0c.32-.3.92-.17.92-.55s-.69-.38-.6-1,.4-.3.52-1.36-.77-2.67-1.66-2.46-2.26,1.45-2.54.89-.86-.29-2,.09-5.62-.38-5.94-.77c0,0-.77-.55-1.18-.25a5.42,5.42,0,0,1-2.51.08c-.48-.08-.93.55-1.53.35a25.55,25.55,0,0,1-3.24-1c-.49-.34-1.22-.34-1.53-.51s-1.5-.25-1.74.08a18.87,18.87,0,0,1-1.58,1.36c-.44.42-1,.34-.52,1.23s-1.13,1.45-.73,2.42-.08,3.59,1.53,4.11,3,.8,3.89,0,2.35-.76,2.79.09.69,2.11,2.14,2.83,2.71,2.81,2.63,3.74,0,4,1.53,5.81,3,5,3.16,4.24.12-1.53.45-1,1.17,2.25,2.54,2.54,2.07.38,2.59.9a5.19,5.19,0,0,0,1.54,1.06,6.54,6.54,0,0,1,2.22,1.52,2.36,2.36,0,0,1-.12,2,2.61,2.61,0,0,0-.2,2.25c.4.71,1.25,2.8,1.94,3.26a2.37,2.37,0,0,1,1.21,2.29,63.25,63.25,0,0,0-.85,6.61c.09,1-.92,4.36-.11,5.72a2.91,2.91,0,0,0,2.79,1.6c.6-.16.12-.2-.16-.84a2.33,2.33,0,0,1,.08-2,1.91,1.91,0,0,0,.16-1.62,1.56,1.56,0,0,1,.32-1.56c.41-.51,2.11-1.87,2.63-2.46s3.85-4.66,4.29-5a4.61,4.61,0,0,0,1.78-2.41c.33-1.27,1.5-3.77.69-4.41S231.32,211.54,231.2,211.46Z" transform="translate(-136.85 -95.15)" fill="url(#radial-gradient)"/><path d="M239.29,175.68c.23-.44.79-1.57,1.09-2.19H227.56a19.91,19.91,0,0,1,.61,4.23c-.12,1.19.24.77.56,1.24a2,2,0,0,1,.05,1.73,4.47,4.47,0,0,0,.32,3.22c.65,1.45,1.41,3.27,2.06,3.35s.49,1,.94.68.52-1.1.89-2.2.36-1.91,1.29-2.46a29.24,29.24,0,0,0,4.08-3c.57-.64,1.22-.89,1-2A4.54,4.54,0,0,1,239.29,175.68Z" transform="translate(-136.85 -95.15)" fill="url(#radial-gradient-2)"/><path d="M302.39,180.69c-.49-.34-3.4-2.67-4.65-2.37s-3.48-.68-3.84-.9a19.22,19.22,0,0,0-4.94-1.18,26.33,26.33,0,0,1-5.46-1.36c-1.38-.59-2.55-3.51-5.17-3-.34.06-3.52.51-4.33,1.23s-1.17,1.57-1.62,1.74-1.73.08-1.73.72.44,2.59-.08,2.21-1.06-1.27-1.29-.6-.66,1.06-.9.81-1.46,0-1.62.42a5.21,5.21,0,0,1-2.42,1.53,4.18,4.18,0,0,0-1.34.64c-.36.17-3.11,1.44-3.63,1s-.69-.17-1-.08a2.81,2.81,0,0,1-1.57-.94c-.61-.76-.73-.5-1.42-1.22s-.85-1.44-1.54-1.15a33.62,33.62,0,0,0-4.72,4.66c-1.13,1.36-3.16,2.76-2.15,3.73s1.54.85,1.66,1.39a5.41,5.41,0,0,0,.41,1.37c.16.21,1.13,1,1.62,0s.56-1.73,1.13-1.56.69.55.4,1.31-.48,1.95-1.45,1.91-2-.64-2.35-.51-.52.42-.89.72-1.5,1.69-2.27,1.9-1.69,0-1.17.68,1.29,2,.57,2-1.94-.17-2,.55-.41,1.14-.24,1.65.68,1.49,1.33,1.15,1.9-.68,2.22-1.44.7-1.61,1.5-1.57,2.75,1.1,2.63,1.48-.52,1.27,0,1,.89-.64,1.17-.76.66.42.77.63.93.64,1.09,0,.33-.17.81,0,1.94.38,2.14.55a.88.88,0,0,1,.08,1.36,1.5,1.5,0,0,1-2.14.42c-.93-.5-1.95.43-3-.08s-.57-1.23-1.82-1.73-4.09.12-5,.37-.93.34-1.29.76-2.75,3.18-2.75,4.75.89,5.81,3.76,5.38,4.61-.17,4.29.68-.16,1.06.36,2,1.74,7.46,1.94,8.52-.15,2.41,1.18,2.2,2.75-.54,3.31-1.78.66-2.62,1.38-3.34,1.62-.72,1.7-1.74-.2-3.43.28-4,2.75-3.09,3-4.11.57-1.27-.36-1.27-2.51-.13-3-1a19.63,19.63,0,0,1-1.49-2.84c0-.38.65-.34,1,.46s1.46,3.23,2.75,2.71,3.12-1.1,3.16-1.91-.57-1.73-1.22-1.68-1.33-.43-1.33-.89.12-.3.88,0,1,.8,2.19.89,2.51,1.22,3.15,1.74,1.78,4,2.07,4.32.61.34.89-.34a14.58,14.58,0,0,1,2.18-3.44c.69-.59.73-1.39,1.13-.89s2.15,1.79,2.27,2.55-.08,2.41.28,1.91.65-1.57,1-1.1.33,1.19,1.1.64,2.1-.77,1.38-2-.24-1.9.21-1.94,3.47-.6,3.55-2.26-1-2.54-.51-3.39,1.28-1.61,1.45-1.1-.4,2.16.32,1.91,1.58-.26,1.58-.77-.16-1.78.16-2.12,2.71-2.58,3-3.47.81-1.65.37-2.33-1.22-.47-.61-1.31a4,4,0,0,1,2.39-1.7c2.45-.21,1.76,2.83,1.8,3.5s.05,2.38.41,1.53a7.93,7.93,0,0,1,1.51-2.61c.73-.72,1.13-1.19,1.18-1.82s.07-.85.77-1.19,3.72-1.53,4-2.33-.36-1.53.36-1.48,1.42.85,1.78.42,1.18-1.18,1.14-1.61S302.88,181,302.39,180.69Z" transform="translate(-136.85 -95.15)" fill="url(#radial-gradient-3)"/><path d="M289.33,194.93a11.29,11.29,0,0,0-.73,1.78,6.06,6.06,0,0,1-.61,1.57c-.36.72-1,.8-1.57,1.27a2.49,2.49,0,0,0-.78,1.39c-.52.72,2.15-1,3.08-1.56s.69-1.19.77-2.08a1.69,1.69,0,0,1,.72-1.4c.41-.38.08-1.14-.11-1.69S289.57,194.38,289.33,194.93Z" transform="translate(-136.85 -95.15)" fill="url(#radial-gradient-4)"/><path d="M281,214.17c.28-.21.07-.68.52-.59s.85.34,1.38,0,1-.17.89-.68,0-1.18-.12-1.6-.85-.56-1.38-.09-1.25,1.19-1.25.93.32-.93.16-1.35.08-.81-.73-.47-1.25.26-1.53.73-.61,1.27-1.09.76a23.5,23.5,0,0,0-1.91-1.57c-.11-.13-1.73-1.44-1.16-.55s1.41,2.42,1.82,3,.84,1.19,1.33.89.57-.38,1.22,0S280.75,214.38,281,214.17Z" transform="translate(-136.85 -95.15)" fill="url(#radial-gradient-5)"/><path d="M291,213c-.77-.34-.45-.64-1.38-.81a17.28,17.28,0,0,1-1.95-.17c-.24-.17-1.45-.59-1.29,0s1.25.77,1.53.94-.4.55.12.84.89.85,1.58.68.93.21,1.49.3,1.14-.09.9-.35a1.15,1.15,0,0,1-.36-.88C291.63,213.24,291.71,213.32,291,213Z" transform="translate(-136.85 -95.15)" fill="url(#radial-gradient-6)"/><path d="M290.54,216.76c-.28-.85-1-2.42-1.13-1.66a2,2,0,0,1-1.66,1.27c-.37,0-.16-.42-.16-.77s-.21-.67-1.14-.42-1.12,1.15-1.38,1.06a1.19,1.19,0,0,0-1.29.22c-.4.47-.77,1.35-1.25,1.53s-2.11.38-2.11,1.06.41,1.69.37,2.25-.78,1.82.2,2.2a1.73,1.73,0,0,0,1.63-.08c.64-.34,3.43-1.23,3.8-.94s.95,1,1.21,1.15c.51.3.65,1,1.34,1.18a7.19,7.19,0,0,0,1.49.25,2.1,2.1,0,0,0,1.54-.93c.24-.6.69-2,.89-2.67a1.87,1.87,0,0,0-.2-2A9.53,9.53,0,0,1,290.54,216.76Z" transform="translate(-136.85 -95.15)" fill="url(#radial-gradient-7)"/></svg>