<?xml version="1.0" encoding="utf-8"?>
<!-- Generator: Adobe Illustrator 25.2.1, SVG Export Plug-In . SVG Version: 6.00 Build 0)  -->
<svg version="1.1" id="Layer_1" xmlns="http://www.w3.org/2000/svg" xmlns:xlink="http://www.w3.org/1999/xlink" x="0px" y="0px"
	 viewBox="0 0 500 500" style="enable-background:new 0 0 500 500;" xml:space="preserve">
<style type="text/css">
	.st0{fill:none;stroke:#DB0F0F;stroke-width:35;stroke-miterlimit:10;}
	.st1{fill:none;stroke:#000000;stroke-width:3;stroke-miterlimit:10;}
	.st2{fill:#FFFFFF;}
	.st3{fill:#0B0BCE;}
	.st4{fill:url(#SVGID_1_);}
	.st5{fill:url(#SVGID_2_);}
	.st6{fill:url(#SVGID_3_);}
	.st7{fill:url(#SVGID_4_);}
	.st8{fill:url(#SVGID_5_);}
	.st9{fill:url(#SVGID_6_);}
	.st10{fill:url(#SVGID_7_);}
</style>
<g>
	<path class="st0" d="M199,125.4c-3.9,2.4-28.1,17.9-38.4,46.8c-18.4,51.7,20.4,109.4,51.7,156.1c11.9,17.7,25.1,34.6,39.5,50.4
		l20.1-25c9-10.5,82.2-96.7,71.9-164.9c-1.6-12.7-6.1-25-13-35.8c-22.2-34.1-62.6-39.8-68.8-40.6C253.9,111.5,226.4,108.5,199,125.4
		z"/>
	<path class="st1" d="M189.5,108.7c-4.6,2.9-33.1,21.1-45.3,55.2c-21.7,60.9,24,129,61,184.1c14,20.9,29.6,40.8,46.6,59.4l23.7-29.5
		c10.6-12.3,96.9-114.1,84.8-194.5c-1.9-15-7.2-29.4-15.3-42.2c-26.2-40.2-73.8-46.9-81.2-47.8C254.2,92.4,221.7,88.8,189.5,108.7z"
		/>
	<path class="st2" d="M144.7,199.1l0.7-4.2c0.1-1,0.4-2,0.8-3c0.3-0.7,0.9-1.2,1.5-1.5c1-0.3,2.1-0.4,3.2-0.2
		c0.7,0.1,1.4,0.3,1.9,0.8c0.4,0.6,0.6,1.2,0.5,1.9c0.2-0.8,0.7-1.4,1.4-1.8c0.8-0.3,1.6-0.3,2.5-0.1l1.5,0.2
		c0.8,0.1,1.7,0.4,2.4,0.8c0.5,0.3,0.8,0.8,0.9,1.4c0.1,1.2,0,2.3-0.2,3.4l-0.8,4.9L144.7,199.1z M148.2,195.3l3.6,0.6
		c0-0.1,0-0.3,0.1-0.4c0.1-0.3,0-0.6-0.2-0.9c-0.5-0.3-1.1-0.4-1.7-0.5c-0.4-0.1-0.7-0.1-1.1,0c-0.2,0-0.4,0.1-0.4,0.3
		C148.3,194.7,148.2,195,148.2,195.3z M154,196.3l4.6,0.7c0.1-0.4,0.1-0.8-0.1-1.2c-0.1-0.2-0.5-0.3-1.2-0.4l-1.5-0.2
		c-0.4-0.1-0.9-0.1-1.3,0C154.2,195.5,154,195.9,154,196.3L154,196.3z"/>
	<path class="st2" d="M160.9,176l-1.8,5l2.8,1c0.4,0.2,0.8,0.3,1.2,0.3c0.2,0,0.4-0.2,0.4-0.4c0.1-0.2,0.1-0.5-0.1-0.7
		c-0.4-0.3-0.8-0.5-1.2-0.6l-1.7-0.6l1.3-3.7l1,0.3c0.6,0.2,1.2,0.5,1.8,0.8c0.5,0.3,0.8,0.7,1.1,1.2c0.3,0.5,0.6,1.2,0.6,1.8
		c0,0.8-0.1,1.5-0.4,2.2c-0.3,0.7-0.6,1.4-1.1,2c-0.4,0.5-0.9,0.9-1.5,1.1c-0.5,0.2-1.1,0.3-1.6,0.2c-0.8-0.1-1.5-0.3-2.2-0.6
		l-3.8-1.2c-0.9-0.3-1.8-0.8-2.5-1.4c-0.5-0.5-0.9-1.2-0.9-2c-0.1-1.9,0.6-3.7,1.9-5c0.6-0.5,1.4-0.9,2.2-0.9c1,0,2,0.2,3,0.6
		L160.9,176z M157.4,179.2l-0.9-0.3c-0.4-0.2-0.9-0.3-1.3-0.4c-0.2,0-0.4,0.1-0.4,0.3c-0.1,0.3-0.1,0.5,0.1,0.6
		c0.4,0.2,0.8,0.4,1.3,0.6l0.9,0.3L157.4,179.2z"/>
	<path class="st2" d="M170.4,143.2l6.1,9.2l4.6,3.8l-2.6,3.1l-4.6-3.8l-10.1-4.4l2.6-3.1c2.9,1.6,4.8,2.7,5.7,3.4
		c-1.2-1.3-2.6-3-4.3-5.1L170.4,143.2z"/>
	<path class="st2" d="M186.4,138.4l2.3,2.4c0.6,0.6,1.2,1.3,1.7,2.1c0.3,0.5,0.5,1.1,0.5,1.7c0,0.6-0.1,1.3-0.4,1.9
		c-0.3,0.7-0.8,1.3-1.4,1.7c-0.6,0.6-1.2,1-1.9,1.4c-0.5,0.3-1.1,0.4-1.7,0.3c-0.6-0.1-1.1-0.3-1.6-0.6c-0.7-0.5-1.4-1.1-1.9-1.8
		l-2.4-2.5c-0.7-0.7-1.3-1.5-1.7-2.5c-0.3-0.7-0.3-1.5-0.1-2.3c0.3-0.9,0.8-1.7,1.6-2.4c0.6-0.6,1.3-1,2-1.3
		c0.6-0.2,1.2-0.3,1.9-0.3c0.5,0.1,1,0.2,1.5,0.5C185.3,137.4,185.9,137.9,186.4,138.4z M182.6,140.5c-0.3-0.4-0.6-0.7-1-0.9
		c-0.3-0.1-0.6,0.1-0.7,0.4c0,0.1,0,0.2,0,0.3c0.2,0.4,0.5,0.7,0.8,1l4.2,4.5c0.3,0.3,0.6,0.6,0.9,0.8c0.2,0.1,0.4,0,0.6-0.1
		c0.2-0.1,0.2-0.3,0.2-0.5c-0.2-0.3-0.4-0.7-0.7-0.9L182.6,140.5z"/>
	<path class="st2" d="M196.3,125.2l7.8,11.1l-3.4,2.4l-0.6-1c0,0.5-0.1,1-0.3,1.4c-0.2,0.5-0.6,0.8-1,1.1c-0.4,0.3-0.9,0.5-1.5,0.6
		c-0.4,0.1-0.9,0-1.2-0.2c-0.4-0.2-0.7-0.4-0.9-0.7c-0.3-0.3-0.7-0.9-1.4-1.9l-5.3-7.5l3.4-2.4l5.3,7.6c0.4,0.5,0.8,1,1.2,1.5
		c0.2,0.1,0.4,0.1,0.6-0.1c0.2-0.2,0.4-0.4,0.3-0.6c-0.3-0.6-0.7-1.1-1.1-1.7l-5.3-7.5L196.3,125.2z"/>
	<path class="st2" d="M205.8,119.6l0.7,1.7c-0.2-1.2,0.4-2.3,1.3-3l2.3,4.2c-0.5,0.2-1,0.6-1.3,1.1c-0.2,0.3-0.3,0.7-0.2,1.1
		c0.3,0.8,0.7,1.6,1.1,2.3l2.6,4.7l-3.6,2l-6.5-12L205.8,119.6z"/>
	<path class="st2" d="M241.2,112.5l-4.2,0.8l-0.6-2.8c-0.1-0.5-0.2-1-0.4-1.5c-0.2-0.2-0.4-0.3-0.7-0.2c-0.3,0.1-0.6,0.2-0.6,0.5
		c0,0.6,0,1.1,0.2,1.6l1.5,7.6c0.1,0.5,0.2,1,0.4,1.5c0.1,0.2,0.4,0.3,0.7,0.2c0.3,0,0.5-0.2,0.6-0.5c0-0.6,0-1.2-0.2-1.7l-0.4-2
		l4.2-0.8l0.1,0.6c0.3,1.2,0.4,2.4,0.3,3.7c-0.2,0.8-0.6,1.6-1.2,2.1c-0.8,0.7-1.8,1.2-2.9,1.4c-1.1,0.2-2.2,0.2-3.2-0.1
		c-0.8-0.2-1.6-0.8-2-1.5c-0.5-1.1-0.9-2.3-1.1-3.5l-1-4.8c-0.2-0.9-0.3-1.8-0.4-2.7c0-0.6,0.1-1.3,0.4-1.8c0.3-0.7,0.8-1.2,1.4-1.6
		c0.7-0.5,1.5-0.8,2.3-1c1.1-0.3,2.2-0.2,3.2,0.1c0.8,0.2,1.5,0.8,2,1.5c0.5,1,0.8,2.1,1,3.3L241.2,112.5z"/>
	<path class="st2" d="M257,112l0.1,3.3c0.1,0.9,0,1.8-0.1,2.7c-0.1,0.6-0.4,1.2-0.7,1.6c-0.4,0.5-0.9,0.9-1.5,1.2
		c-0.7,0.3-1.4,0.4-2.2,0.4c-0.8,0-1.6,0-2.3-0.2c-0.6-0.1-1.1-0.4-1.5-0.9c-0.4-0.4-0.7-0.9-0.8-1.4c-0.2-0.8-0.3-1.7-0.3-2.6
		l-0.1-3.5c-0.1-1,0-2,0.3-3c0.3-0.7,0.8-1.4,1.4-1.8c0.8-0.5,1.8-0.7,2.7-0.7c0.8-0.1,1.6,0.1,2.4,0.3c0.6,0.2,1.1,0.5,1.6,1
		c0.4,0.4,0.6,0.8,0.8,1.3C256.9,110.6,257,111.3,257,112z M252.9,111.2c0-0.4,0-0.9-0.2-1.3c-0.1-0.2-0.3-0.3-0.5-0.2
		c-0.2,0-0.4,0.1-0.5,0.3c-0.1,0.4-0.1,0.9-0.1,1.3l0.2,6.1c0,0.4,0,0.8,0.2,1.2c0.2,0.3,0.5,0.4,0.8,0.2c0.1-0.1,0.2-0.1,0.2-0.2
		c0.1-0.4,0.1-0.8,0.1-1.2L252.9,111.2z"/>
	<path class="st2" d="M273.5,108.8l-1.8,13.5l-4.2-0.5l0.2-1.1c-0.6,0.8-1.7,1.2-2.7,1c-0.5-0.1-1-0.2-1.5-0.5
		c-0.4-0.2-0.6-0.6-0.8-1c-0.1-0.4-0.2-0.8-0.2-1.2c0-0.8,0.1-1.6,0.2-2.3l1.2-9.1l4.1,0.5l-1.2,9.2c-0.1,0.6-0.1,1.3-0.1,1.9
		c0,0.2,0.2,0.3,0.5,0.4s0.5,0,0.6-0.2c0.2-0.7,0.3-1.3,0.4-2l1.2-9L273.5,108.8z"/>
	<path class="st2" d="M284.8,111.7l-0.4,1.2c0.4-0.4,0.9-0.6,1.4-0.7c0.5-0.1,1.1-0.1,1.6,0.1c0.6,0.2,1.1,0.5,1.5,1
		c0.3,0.4,0.5,0.9,0.4,1.5c-0.1,0.8-0.3,1.7-0.6,2.5l-2.9,9.1l-3.9-1.3l2.9-9c0.2-0.5,0.3-1.1,0.4-1.7c0-0.2-0.1-0.4-0.4-0.4
		c-0.2-0.1-0.5,0-0.6,0.2c-0.3,0.6-0.5,1.2-0.7,1.8l-2.8,8.8l-4-1.3l4.2-12.9L284.8,111.7z"/>
	<path class="st2" d="M301.1,116.3l-0.9,1.9l1,0.5l-0.9,1.9l-1-0.5l-3.2,6.5c-0.3,0.4-0.4,0.9-0.5,1.4c0,0.1,0.4,0.3,1,0.6l-1,2
		l-1.5-0.7c-0.6-0.3-1.2-0.6-1.8-1c-0.3-0.3-0.6-0.6-0.7-1c-0.1-0.4-0.2-0.8-0.1-1.1c0.3-0.8,0.6-1.6,1-2.4l3-6.2l-0.8-0.4l0.9-1.9
		l0.8,0.4l0.9-1.9L301.1,116.3z"/>
	<path class="st2" d="M310.3,123.8l-1.1,1.4c1-0.7,2.2-0.8,3.3-0.3l-2.6,4c-0.5-0.3-1-0.6-1.6-0.7c-0.4,0-0.7,0.1-1,0.4
		c-0.5,0.6-1,1.3-1.5,2.1l-2.9,4.5l-3.5-2.3l7.4-11.4L310.3,123.8z"/>
	<path class="st2" d="M324.4,135l-7.4,6.7c-1.2,1.1-2,1.8-2.4,2.1c-0.4,0.3-0.9,0.5-1.4,0.7c-0.5,0.1-1,0-1.5-0.2
		c-0.8-0.4-1.5-0.9-2.1-1.4l-1.9-1.6l1.4-1.6c0.3,0.3,0.6,0.5,1,0.7c0.2,0.1,0.4,0,0.5-0.2c0.1-0.1,0.3-0.5,0.7-1.2l5.8-10.1
		l2.8,2.5l-5,7.8l6.5-6.5L324.4,135z"/>
	<path class="st2" d="M342.1,151.2l4.1,6l-2.8,1.8l-1.7-2.5l-2.6,1.7l1.5,2.2l-2.6,1.8l-1.5-2.2l-5.8,3.9l-2.4-3.6L342.1,151.2z"/>
	<path class="st2" d="M343.9,170l-1.7-3.5l0.8-0.4c0.7-0.4,1.5-0.7,2.3-0.8c0.7,0,1.4,0.2,2,0.6c0.8,0.6,1.5,1.3,1.9,2.2
		c0.6,1,0.8,2.1,0.8,3.2c-0.1,0.8-0.4,1.5-1.1,2c-1.2,0.8-2.5,1.6-3.9,2.2l-6.1,3.1l-1.8-3.6l1.1-0.5c-0.5,0-1-0.1-1.4-0.4
		c-0.4-0.3-0.8-0.7-1-1.1c-0.3-0.6-0.4-1.4-0.4-2.1c0.1-0.7,0.8-1.4,2-2l1-0.5c0.6-0.4,1.3-0.6,2.1-0.5c0.8,0.4,1.6,0.9,2.2,1.6
		c0.6,0.6,1.2,1.1,1.9,1.5c0.4,0,0.7-0.2,1.1-0.4c0.4-0.2,0.8-0.4,1.2-0.8c0.1-0.2,0.1-0.4,0-0.6c-0.1-0.2-0.3-0.4-0.5-0.4
		c-0.5,0.1-0.9,0.3-1.3,0.5L343.9,170z M342.8,172c-0.5-0.3-1-0.5-1.6-0.5c-0.5,0.1-0.9,0.3-1.3,0.5c-0.4,0.2-0.8,0.4-1.2,0.7
		c-0.1,0.2-0.1,0.4,0,0.6c0.1,0.2,0.3,0.3,0.4,0.3c0.4-0.1,0.8-0.2,1.2-0.5L342.8,172z"/>
	<path class="st2" d="M351.2,189.7l-1.1-3.8l1.5-0.4c0.4-0.1,0.7-0.2,1-0.4c0.2-0.1,0.2-0.4,0.1-0.6c0-0.2-0.2-0.4-0.4-0.4
		c-0.4,0-0.8,0.1-1.1,0.2l-6.2,1.8c-0.4,0.1-0.7,0.2-1,0.5c-0.2,0.1-0.3,0.4-0.2,0.6c0.1,0.2,0.3,0.4,0.5,0.4c0.5,0,1-0.1,1.4-0.2
		l1.6-0.4l1,3.6c-0.8,0.2-1.6,0.4-2.4,0.6c-0.6,0.1-1.2,0-1.8-0.2c-0.6-0.2-1.2-0.6-1.6-1.1c-0.5-0.6-0.9-1.3-1.1-2.1
		c-0.3-0.9-0.4-1.9-0.2-2.8c0.2-0.7,0.6-1.4,1.2-1.9c0.9-0.6,1.8-1,2.8-1.2l3.7-1.1c0.8-0.3,1.7-0.4,2.6-0.4c0.7,0.1,1.4,0.5,1.9,1
		c1.4,1.4,1.9,3.4,1.5,5.3c-0.2,0.8-0.6,1.5-1.2,1.9C353.1,189.1,352.2,189.5,351.2,189.7z"/>
	<path class="st2" d="M351.6,205.3L351,200l-2.9,0.4c-0.4,0-0.8,0.1-1.2,0.3c-0.2,0.1-0.3,0.3-0.2,0.5c0,0.3,0.2,0.5,0.4,0.6
		c0.5,0.1,0.9,0.1,1.4,0l1.8-0.2l0.5,3.9l-1,0.1c-0.7,0.1-1.3,0.1-2,0.1c-0.5-0.1-1.1-0.3-1.5-0.6c-0.5-0.3-1-0.8-1.3-1.3
		c-0.4-0.7-0.6-1.4-0.6-2.2c-0.1-0.8-0.1-1.6,0.1-2.3c0.3-1.2,1.1-2.2,2.2-2.6c0.7-0.2,1.5-0.4,2.3-0.5l3.9-0.5
		c1-0.2,1.9-0.1,2.9,0.1c0.7,0.3,1.3,0.7,1.7,1.4c0.5,0.7,0.8,1.6,0.8,2.4c0.2,1,0,2-0.3,2.9c-0.3,0.7-0.9,1.4-1.6,1.8
		c-0.9,0.5-2,0.7-3,0.8L351.6,205.3z M353.4,200.9l1-0.1c0.5,0,0.9-0.1,1.4-0.3c0.3-0.2,0.3-0.5,0.2-0.8c-0.1-0.1-0.1-0.1-0.2-0.2
		c-0.5,0-1,0-1.4,0.1l-1,0.1L353.4,200.9z"/>
	<path d="M219,280v17h-4v-8.9c0-0.8,0-1.6-0.1-2.3c-0.1-0.3-0.2-0.5-0.5-0.6c-0.6-0.2-1.2-0.2-1.8-0.2H212v-2.1
		c1.8-0.3,3.4-1.4,4.6-2.9L219,280z"/>
	<path d="M229,280v2h-4v-2H229z M229,283v14h-4v-14L229,283z"/>
	<path d="M239.4,283l-0.1,1.3c0.3-0.5,0.7-0.9,1.2-1.2c0.5-0.3,1-0.4,1.6-0.4c0.6,0,1.3,0.2,1.8,0.5c0.5,0.3,0.8,0.8,0.9,1.3
		c0.2,0.9,0.2,1.7,0.2,2.6v9.8h-5v-9.9c0.2-0.6,0.2-1.1,0.1-1.7c-0.1-0.2-0.3-0.3-0.5-0.3c-0.2,0-0.5,0.1-0.6,0.4
		c-0.1,0.6-0.1,1.3,0,1.9v9.7h-4v-14H239.4z"/>
	<path d="M260,289.6c0,1.2,0,2.4-0.1,3.5c-0.1,0.7-0.3,1.3-0.7,1.9c-0.4,0.6-1,1-1.7,1.3c-0.8,0.3-1.6,0.5-2.5,0.5
		c-0.8,0-1.6-0.1-2.4-0.4c-1.3-0.5-2.3-1.8-2.5-3.2c-0.1-0.7-0.1-1.9-0.1-3.6v-2.8c0-1.2,0-2.4,0.1-3.6c0.1-0.7,0.3-1.3,0.7-1.9
		c0.4-0.6,1-1,1.7-1.3c1.6-0.6,3.3-0.6,4.9,0c1.4,0.5,2.3,1.8,2.5,3.2c0.1,1.2,0.1,2.4,0.1,3.6V289.6z M255,284.2
		c0.6-0.5,0.6-1,0.5-1.5c-0.1-0.2-0.3-0.3-0.5-0.3c-0.2,0-0.4,0.1-0.5,0.3c-0.2,0.5-0.2,1-0.4,1.5v7.8c0.2,0.6,0.3,1.2,0.4,1.8
		c0.1,0.2,0.3,0.4,0.6,0.3c0.3,0,0.5-0.1,0.6-0.4c0.1-0.6,0.2-1.2-0.5-1.9V284.2z"/>
	<path d="M269.4,283l-0.1,1.3c0.3-0.5,0.7-0.9,1.2-1.2c0.5-0.3,1-0.4,1.6-0.4c0.6,0,1.3,0.2,1.8,0.5c0.5,0.3,0.8,0.8,0.9,1.3
		c0.2,0.9,0.2,1.7,0.2,2.6v9.8h-4v-9.9c0-0.6,0-1.1-0.1-1.7c-0.1-0.2-0.3-0.3-0.5-0.3c-0.2,0-0.5,0.1-0.6,0.4
		c-0.1,0.6-0.2,1.3,0.1,1.9v9.7h-5v-14H269.4z"/>
	<path d="M290,290h-5v2.9c-0.2,0.4-0.1,0.8,0,1.2c0.1,0.2,0.3,0.3,0.5,0.3c0.3,0,0.5-0.1,0.6-0.4c0.1-0.4,0.2-0.9-0.1-1.4V291h4v0.8
		c0.2,0.7,0.2,1.3,0,1.9c-0.2,0.5-0.4,1-0.8,1.4c-0.4,0.5-0.9,0.9-1.5,1.1c-0.7,0.3-1.5,0.4-2.2,0.4c-0.8,0-1.6-0.1-2.3-0.4
		c-0.6-0.2-1.1-0.6-1.6-1c-0.4-0.4-0.6-0.9-0.8-1.5c-0.2-0.8-0.2-1.5-0.9-2.3v-4c0.7-1,0.8-1.9,1.2-2.8c0.3-0.7,0.9-1.2,1.6-1.6
		c1.7-0.8,3.7-0.7,5.4,0.1c0.7,0.4,1.3,1,1.6,1.8c0.3,1,0.5,2,0.3,3.1V290z M286,288v-1.3c0.1-0.5,0-0.9-0.1-1.4
		c-0.1-0.2-0.3-0.3-0.5-0.3c-0.3,0-0.5,0.1-0.5,0.3c-0.1,0.5-0.1,0.9,0.1,1.4v1.3H286z"/>
	<circle class="st3" cx="250.4" cy="204.6" r="68.4"/>
	
		<radialGradient id="SVGID_1_" cx="353.846" cy="-273.1169" r="24.4" gradientTransform="matrix(1 0 0 -1 -137.83 -68.51)" gradientUnits="userSpaceOnUse">
		<stop  offset="0" style="stop-color:#FCE5B8"/>
		<stop  offset="0.16" style="stop-color:#FFDF3F"/>
		<stop  offset="0.41" style="stop-color:#FFE0AA"/>
		<stop  offset="0.67" style="stop-color:#EAC43D"/>
		<stop  offset="1" style="stop-color:#E2AA00"/>
	</radialGradient>
	<path class="st4" d="M232.7,210.5c-0.9-0.8-1.8-1.6-2.6-2.5c-0.5-0.6-1.4-0.8-1.9-1.1c-0.5-0.3-3.7-1.3-4.5-0.8
		c-0.8,0.5-1.8,0.9-2.2,0c-0.4-0.9-0.6-1-1.2-1.1c-0.6-0.2-0.3-0.8-0.3-1.4c0-0.6-0.4-1.2-0.8-0.8c-0.4,0.4-1.8,1.5-2,1
		s-1.2-2.8,0.3-3.3c1-0.4,2.1-0.3,3,0.2c0.4,0.4,0.6,1.4,1.1,1.3s0.2-0.9,0.4-1.6s1.2-1.6,1.7-2.5s0.6-1.5,1.2-1.7
		c0.5-0.3,1-0.6,1.5-1c0.6-0.4,1.2-0.7,1.8-1c0.7-0.5,1.4-0.7,2.2-0.8c0.5,0.1,0.8,0,0.4-0.8c-0.4-0.8-0.9-2.9-1.7-3.9
		c-0.5-0.6-1-1.4-1.2-2.2c-0.4-0.9-0.8-1.7-1.1-1.1c-0.3,0.6-0.9,1.5-1.2,0.7c-0.3-0.8-0.3-0.8-0.7-1.1c-0.4-0.3-0.8-0.6-1.3-0.6
		c-0.6-0.2-1.1,0-1.1,0.6c0,0.6-0.5,1.5-0.2,2.2s0.7,1.5,0.2,1.7s0,1.8-0.5,1.7c-0.5-0.1-0.7,0-0.7-0.5c0-0.5,0.2-1.4-0.7-1.4
		c-0.8-0.1-1.5-0.4-2.1-0.9c-0.6-0.5-1.2-0.2-1-1.3s-0.1-1.4,0.6-2s0.9-0.9,1.4-0.7s0.9,0.3,1.2,0c0.3-0.3,0.9-0.2,0.9-0.6
		s-0.7-0.4-0.6-1c0.1-0.6,0.4-0.3,0.5-1.4s-0.8-2.7-1.7-2.5c-0.9,0.2-2.3,1.4-2.5,0.9s-0.9-0.3-2,0.1c-1.1,0.4-5.6-0.4-5.9-0.8
		c0,0-0.8-0.5-1.2-0.2c-0.8,0.2-1.7,0.3-2.5,0.1c-0.5-0.1-0.9,0.5-1.5,0.3c-1.1-0.3-2.2-0.6-3.2-1c-0.5-0.3-1.2-0.3-1.5-0.5
		c-0.3-0.2-1.5-0.2-1.7,0.1c-0.5,0.5-1,0.9-1.5,1.4c-0.4,0.4-1,0.4-0.5,1.2s-1.1,1.4-0.7,2.4c0.4,1-0.1,3.6,1.5,4.1
		c1.6,0.5,3,0.8,3.9,0c0.9-0.8,2.4-0.8,2.8,0.1c0.4,0.8,0.7,2.1,2.1,2.8s2.7,2.8,2.6,3.7c-0.1,0.9,0,4,1.5,5.8s3,5,3.1,4.2
		c0.2-0.8,0.1-1.5,0.5-1s1.2,2.2,2.5,2.5c1.4,0.3,2.1,0.4,2.6,0.9c0.4,0.5,1,0.8,1.5,1.1c0.8,0.4,1.6,0.9,2.2,1.5
		c0.3,0.7,0.2,1.4-0.1,2c-0.4,0.7-0.5,1.5-0.2,2.2c0.4,0.7,1.3,2.8,2,3.3c0.8,0.5,1.3,1.3,1.2,2.3c-0.4,2.2-0.7,4.4-0.9,6.6
		c0.1,1-0.9,4.4-0.1,5.7c0.5,1,1.6,1.7,2.8,1.6c0.6-0.2,0.1-0.2-0.2-0.9c-0.3-0.6-0.2-1.4,0.1-2c0.3-0.5,0.4-1.1,0.2-1.6
		c-0.2-0.5-0.1-1.1,0.3-1.6c0.4-0.5,2.1-1.9,2.6-2.5c0.5-0.6,3.8-4.7,4.3-5c0.8-0.6,1.5-1.5,1.8-2.4c0.3-1.3,1.5-3.8,0.7-4.4
		S232.8,210.5,232.7,210.5z"/>
	
		<radialGradient id="SVGID_2_" cx="373.316" cy="411.55" r="6.85" gradientTransform="matrix(1 0 0 1 0 -186)" gradientUnits="userSpaceOnUse">
		<stop  offset="0" style="stop-color:#FCE5B8"/>
		<stop  offset="0.16" style="stop-color:#FFDF3F"/>
		<stop  offset="0.41" style="stop-color:#FFE0AA"/>
		<stop  offset="0.67" style="stop-color:#EAC43D"/>
		<stop  offset="1" style="stop-color:#E2AA00"/>
	</radialGradient>
	<path class="st5" d="M240.8,174.2c0.2-0.4,0.8-1.6,1.1-2.2h-12.8c0.4,1.4,0.6,2.8,0.6,4.2c-0.1,1.2,0.2,0.8,0.6,1.2
		c0.3,0.5,0.3,1.2,0,1.7c-0.3,1.1-0.2,2.2,0.3,3.2c0.6,1.4,1.4,3.3,2.1,3.3s0.5,1,0.9,0.7c0.5-0.3,0.5-1.1,0.9-2.2
		c0.4-1.1,0.4-1.9,1.3-2.5c1.4-0.9,2.8-1.9,4.1-3c0.6-0.6,1.2-0.9,1-2C240.6,175.9,240.6,175,240.8,174.2z"/>
	
		<radialGradient id="SVGID_3_" cx="411.496" cy="395.1169" r="29.08" gradientTransform="matrix(1 0 0 1 0 -186)" gradientUnits="userSpaceOnUse">
		<stop  offset="0" style="stop-color:#FCE5B8"/>
		<stop  offset="0.16" style="stop-color:#FFDF3F"/>
		<stop  offset="0.41" style="stop-color:#FFE0AA"/>
		<stop  offset="0.67" style="stop-color:#EAC43D"/>
		<stop  offset="1" style="stop-color:#E2AA00"/>
	</radialGradient>
	<path class="st6" d="M303.9,179.7c-0.5-0.3-3.4-2.7-4.7-2.4c-1.3,0.3-3.5-0.7-3.8-0.9c-1.6-0.6-3.2-1-4.9-1.2
		c-1.9-0.3-3.7-0.7-5.5-1.4c-1.4-0.6-2.6-3.5-5.2-3.1c-0.3,0.1-3.5,0.5-4.3,1.2s-1.2,1.6-1.6,1.7c-0.5,0.2-1.7,0.1-1.7,0.7
		s0.5,2.6-0.1,2.2c-0.5-0.4-1.1-1.3-1.3-0.6c-0.2,0.7-0.6,1.1-0.9,0.8c-0.6-0.2-1.2,0-1.6,0.4c-0.6,0.7-1.5,1.3-2.4,1.5
		c-0.5,0.1-0.9,0.3-1.3,0.6c-0.4,0.2-3.1,1.4-3.6,1c-0.5-0.4-0.7-0.2-1-0.1c-0.6-0.1-1.2-0.5-1.6-0.9c-0.6-0.8-0.7-0.5-1.4-1.2
		s-0.9-1.4-1.5-1.1c-1.7,1.4-3.3,2.9-4.7,4.6c-1.1,1.4-3.1,2.8-2.1,3.7c1,1,1.5,0.8,1.7,1.4c0.1,0.5,0.2,0.9,0.4,1.4
		c0.2,0.2,1.1,1,1.6,0c0.5-1,0.6-1.7,1.1-1.6c0.6,0.2,0.7,0.6,0.4,1.3s-0.5,2-1.5,1.9s-2-0.6-2.3-0.5c-0.4,0.1-0.5,0.4-0.9,0.7
		s-1.5,1.7-2.3,1.9c-0.8,0.2-1.7,0-1.2,0.7c0.5,0.7,1.3,2,0.6,2s-1.9-0.2-2,0.6s-0.4,1.1-0.2,1.7c0.2,0.5,0.7,1.5,1.3,1.1
		c0.6-0.3,1.9-0.7,2.2-1.4c0.3-0.8,0.7-1.6,1.5-1.6c0.8,0,2.8,1.1,2.6,1.5c-0.1,0.4-0.5,1.3,0,1c0.5-0.3,0.9-0.6,1.2-0.8
		c0.3-0.1,0.7,0.4,0.8,0.6c0.1,0.2,0.9,0.6,1.1,0c0.2-0.6,0.3-0.2,0.8,0c0.7,0.1,1.4,0.3,2.1,0.6c0.4,0.3,0.5,0.8,0.2,1.2
		c0,0.1-0.1,0.1-0.1,0.1c-0.5,0.7-1.4,0.9-2.1,0.5c0,0,0,0,0,0l0,0c-0.9-0.5-2,0.4-3-0.1s-0.6-1.2-1.8-1.7c-1.3-0.5-4.1,0.1-5,0.4
		s-0.9,0.3-1.3,0.8s-2.8,3.2-2.8,4.7c0,1.6,0.9,5.8,3.8,5.4s4.6-0.2,4.3,0.7c-0.3,0.8-0.2,1.1,0.4,2s1.7,7.4,1.9,8.5
		c0.2,1.1-0.2,2.4,1.2,2.2c1.3-0.2,2.8-0.5,3.3-1.8s0.7-2.6,1.4-3.3c0.7-0.7,1.6-0.7,1.7-1.7c0.1-1-0.2-3.4,0.3-4
		c0.5-0.6,2.8-3.1,3-4.1s0.6-1.3-0.4-1.3c-0.9,0-2.5-0.1-3-1c-0.6-0.9-1.1-1.9-1.5-2.8c0-0.4,0.6-0.3,1,0.5c0.4,0.8,1.5,3.2,2.8,2.7
		c1.3-0.5,3.1-1.1,3.2-1.9c0-0.8-0.6-1.7-1.2-1.7c-0.6,0.1-1.4-0.5-1.4-1c0-0.5,0.1-0.3,0.9,0c0.8,0.3,1,0.8,2.2,0.9
		s2.5,1.2,3.1,1.7c0.6,0.5,1.8,4,2.1,4.3c0.3,0.3,0.6,0.3,0.9-0.3c0.6-1.2,1.3-2.4,2.2-3.4c0.7-0.6,0.7-1.4,1.1-0.9
		c0.4,0.5,2.1,1.8,2.3,2.5c0.1,0.8-0.1,2.4,0.3,1.9c0.4-0.5,0.6-1.6,1-1.1s0.3,1.2,1.1,0.6c0.8-0.6,2.1-0.8,1.4-2
		c-0.7-1.2-0.2-1.9,0.2-2s3.5-0.6,3.6-2.3c0.1-1.7-1-2.5-0.5-3.4c0.5-0.8,1.3-1.6,1.4-1.1c0.2,0.5-0.4,2.2,0.3,1.9s1.6-0.2,1.6-0.8
		c0-0.5-0.2-1.8,0.2-2.1c0.3-0.3,2.7-2.6,3-3.5c0.3-0.9,0.8-1.7,0.4-2.3c-0.4-0.7-1.2-0.5-0.6-1.3c0.6-0.8,1.4-1.5,2.4-1.7
		c2.4-0.2,1.8,2.8,1.8,3.5s0.1,2.4,0.4,1.5c0.3-1,0.8-1.8,1.5-2.6c0.7-0.7,1.1-1.2,1.2-1.8s0.1-0.8,0.8-1.2c0.7-0.3,3.7-1.5,4-2.3
		c0.3-0.8-0.4-1.5,0.4-1.5c0.7,0,1.4,0.8,1.8,0.4c0.4-0.4,1.2-1.2,1.1-1.6S304.4,180,303.9,179.7z"/>
	
		<radialGradient id="SVGID_4_" cx="427.336" cy="395.2369" r="3.04" gradientTransform="matrix(1 0 0 1 0 -186)" gradientUnits="userSpaceOnUse">
		<stop  offset="0" style="stop-color:#FCE5B8"/>
		<stop  offset="0.16" style="stop-color:#FFDF3F"/>
		<stop  offset="0.41" style="stop-color:#FFE0AA"/>
		<stop  offset="0.67" style="stop-color:#EAC43D"/>
		<stop  offset="1" style="stop-color:#E2AA00"/>
	</radialGradient>
	<path class="st7" d="M290.8,193.9c-0.3,0.6-0.5,1.2-0.7,1.8c-0.1,0.5-0.3,1.1-0.6,1.6c-0.4,0.7-1,0.8-1.6,1.3
		c-0.4,0.4-0.7,0.9-0.8,1.4c-0.5,0.7,2.1-1,3.1-1.6c0.9-0.6,0.7-1.2,0.8-2.1c0-0.6,0.3-1.1,0.7-1.4c0.4-0.4,0.1-1.1-0.1-1.7
		S291.1,193.4,290.8,193.9z"/>
	
		<radialGradient id="SVGID_5_" cx="418.616" cy="380.9669" r="3.65" gradientTransform="matrix(1 0 0 1 0 -186)" gradientUnits="userSpaceOnUse">
		<stop  offset="0" style="stop-color:#FCE5B8"/>
		<stop  offset="0.16" style="stop-color:#FFDF3F"/>
		<stop  offset="0.41" style="stop-color:#FFE0AA"/>
		<stop  offset="0.67" style="stop-color:#EAC43D"/>
		<stop  offset="1" style="stop-color:#E2AA00"/>
	</radialGradient>
	<path class="st8" d="M282.5,213.2c0.3-0.2,0.1-0.7,0.5-0.6c0.4,0.1,0.8,0.3,1.4,0s1-0.2,0.9-0.7c-0.1-0.5,0-1.2-0.1-1.6
		s-0.9-0.6-1.4-0.1s-1.2,1.2-1.2,0.9c0-0.3,0.3-0.9,0.2-1.3s0.1-0.8-0.7-0.5s-1.2,0.3-1.5,0.7s-0.6,1.3-1.1,0.8
		c-0.6-0.6-1.2-1.1-1.9-1.6c-0.1-0.1-1.7-1.4-1.2-0.6c0.6,0.9,1.4,2.4,1.8,3s0.8,1.2,1.3,0.9c0.5-0.3,0.6-0.4,1.2,0
		C281.3,212.9,282.3,213.4,282.5,213.2z"/>
	
		<radialGradient id="SVGID_6_" cx="428.506" cy="379.5469" r="2.29" gradientTransform="matrix(1 0 0 1 0 -186)" gradientUnits="userSpaceOnUse">
		<stop  offset="0" style="stop-color:#FCE5B8"/>
		<stop  offset="0.16" style="stop-color:#FFDF3F"/>
		<stop  offset="0.41" style="stop-color:#FFE0AA"/>
		<stop  offset="0.67" style="stop-color:#EAC43D"/>
		<stop  offset="1" style="stop-color:#E2AA00"/>
	</radialGradient>
	<path class="st9" d="M292.5,212c-0.8-0.3-0.5-0.6-1.4-0.8c-0.9-0.2-1.7,0-2-0.2s-1.4-0.6-1.3,0c0.2,0.6,1.2,0.8,1.5,0.9
		s-0.4,0.6,0.1,0.8s0.9,0.9,1.6,0.7s0.9,0.2,1.5,0.3c0.6,0.1,1.1-0.1,0.9-0.3c-0.2-0.2-0.4-0.6-0.4-0.9
		C293.1,212.2,293.2,212.3,292.5,212z"/>
	
		<radialGradient id="SVGID_7_" cx="426.106" cy="372.8069" r="5.74" gradientTransform="matrix(1 0 0 1 0 -186)" gradientUnits="userSpaceOnUse">
		<stop  offset="0" style="stop-color:#FCE5B8"/>
		<stop  offset="0.16" style="stop-color:#FFDF3F"/>
		<stop  offset="0.41" style="stop-color:#FFE0AA"/>
		<stop  offset="0.67" style="stop-color:#EAC43D"/>
		<stop  offset="1" style="stop-color:#E2AA00"/>
	</radialGradient>
	<path class="st10" d="M292.1,215.8c-0.3-0.9-1-2.4-1.1-1.7c-0.3,0.7-0.9,1.2-1.7,1.3c-0.4,0-0.2-0.4-0.2-0.8c0-0.3-0.2-0.7-1.1-0.4
		c-0.9,0.2-1.1,1.2-1.4,1.1c-0.4-0.2-0.9-0.1-1.3,0.2c-0.4,0.5-0.8,1.4-1.2,1.5c-0.5,0.2-2.1,0.4-2.1,1.1c0,0.7,0.4,1.7,0.4,2.2
		s-0.8,1.8,0.2,2.2c0.5,0.2,1.1,0.2,1.6-0.1c0.6-0.3,3.4-1.2,3.8-0.9c0.4,0.3,1,1,1.2,1.1c0.5,0.3,0.6,1,1.3,1.2
		c0.5,0.1,1,0.2,1.5,0.3c0.6-0.1,1.2-0.4,1.5-0.9c0.2-0.6,0.7-2,0.9-2.7c0.3-0.6,0.3-1.4-0.2-2C293.3,217.7,292.6,216.8,292.1,215.8
		z"/>
	<path class="st1" d="M208,142c-3.2,2-23,14.6-31.4,38.3c-15.1,42.3,16.7,89.5,42.3,127.7c9.7,14.5,20.5,28.3,32.3,41.2l16.4-20.4
		c7.4-8.5,67.2-79.1,58.8-134.9c-1.3-10.4-5-20.4-10.6-29.3c-18.1-27.9-51.2-32.6-56.3-33.2C252.9,130.7,230.4,128.2,208,142z"/>
</g>
</svg>
