<svg id="Layer_1" data-name="Layer 1" xmlns="http://www.w3.org/2000/svg" xmlns:xlink="http://www.w3.org/1999/xlink" viewBox="0 0 224 311.53"><defs><radialGradient id="radial-gradient" cx="215.48" cy="206.96" r="24.39" gradientUnits="userSpaceOnUse"><stop offset="0" stop-color="#fce5b8"/><stop offset="0.16" stop-color="#ffdf3f"/><stop offset="0.41" stop-color="#ffe0aa"/><stop offset="0.67" stop-color="#eac43d"/><stop offset="1" stop-color="#e2aa00"/></radialGradient><radialGradient id="radial-gradient-2" cx="234.95" cy="182.11" r="6.85" xlink:href="#radial-gradient"/><radialGradient id="radial-gradient-3" cx="273.07" cy="199.03" r="29.11" xlink:href="#radial-gradient"/><radialGradient id="radial-gradient-4" cx="288.97" cy="198.92" r="3.04" xlink:href="#radial-gradient"/><radialGradient id="radial-gradient-5" cx="280.25" cy="213.19" r="3.65" xlink:href="#radial-gradient"/><radialGradient id="radial-gradient-6" cx="290.14" cy="214.61" r="2.29" xlink:href="#radial-gradient"/><radialGradient id="radial-gradient-7" cx="287.74" cy="221.34" r="5.74" xlink:href="#radial-gradient"/></defs><path d="M198.51,127.76c-3.94,2.44-28.09,17.86-38.42,46.85C141.68,226.3,180.45,284,211.84,330.75a434.73,434.73,0,0,0,39.51,50.39l20.09-25c9-10.45,82.18-96.73,71.91-164.92a87.07,87.07,0,0,0-13-35.77c-22.19-34.12-62.59-39.8-68.84-40.58C253.41,113.87,225.82,110.84,198.51,127.76Z" transform="translate(-137.83 -96.51)" fill="none" stroke="#020000" stroke-miterlimit="10" stroke-width="35"/><path d="M144.14,201.45l.68-4.25a11.6,11.6,0,0,1,.8-3,3.07,3.07,0,0,1,1.54-1.47,5.7,5.7,0,0,1,3.19-.15,3.43,3.43,0,0,1,1.93.77,3.2,3.2,0,0,1,.58,1.92,3.22,3.22,0,0,1,1.43-1.83,4.43,4.43,0,0,1,2.46-.14l1.52.24a6.08,6.08,0,0,1,2.4.78,2.06,2.06,0,0,1,.9,1.38,12.62,12.62,0,0,1-.25,3.45l-.79,4.93Zm3.49-3.81,3.64.58q0-.27.06-.42c.07-.42,0-.7-.18-.85a5.17,5.17,0,0,0-1.74-.46,3,3,0,0,0-1.1,0,.67.67,0,0,0-.45.31A3,3,0,0,0,147.63,197.64Zm6.19,1,4.59.74a1.89,1.89,0,0,0-.1-1.19c-.14-.2-.54-.35-1.21-.45l-1.53-.25a2.25,2.25,0,0,0-1.31,0A2,2,0,0,0,153.82,198.63Z" transform="translate(-137.83 -96.51)" fill="#fff"/><path d="M160.37,178.31l-1.8,5.05,2.77,1a3,3,0,0,0,1.16.27.52.52,0,0,0,.43-.39.64.64,0,0,0-.12-.71,4,4,0,0,0-1.24-.61l-1.69-.61,1.32-3.69,1,.33a9.53,9.53,0,0,1,1.77.81,3.86,3.86,0,0,1,1.11,1.18,3.66,3.66,0,0,1,.59,1.79,5.64,5.64,0,0,1-.4,2.25,6.29,6.29,0,0,1-1.14,2.05,3.61,3.61,0,0,1-1.5,1.12,3.85,3.85,0,0,1-1.63.24,8.82,8.82,0,0,1-2.25-.58L155,186.47a6.69,6.69,0,0,1-2.49-1.41,3.28,3.28,0,0,1-.95-2,5.52,5.52,0,0,1,.33-2.56,5.59,5.59,0,0,1,1.59-2.49,3.64,3.64,0,0,1,2.19-.9,8.07,8.07,0,0,1,3,.6Zm-3.48,3.16-.94-.33a5,5,0,0,0-1.32-.36.45.45,0,0,0-.44.33c-.1.28-.08.47.06.6a5.65,5.65,0,0,0,1.29.57l.94.33Z" transform="translate(-137.83 -96.51)" fill="#fff"/><path d="M169.79,145.48l6.15,9.18,4.63,3.83L178,161.57l-4.63-3.83-10.1-4.41,2.52-3.06q4.35,2.39,5.71,3.36-1.82-2-4.27-5.09Z" transform="translate(-137.83 -96.51)" fill="#fff"/><path d="M185.83,140.79l2.26,2.45a14.49,14.49,0,0,1,1.69,2.1,3.8,3.8,0,0,1,.51,1.71,3.6,3.6,0,0,1-.4,1.86,6,6,0,0,1-1.36,1.74,7.6,7.6,0,0,1-1.92,1.36,3.18,3.18,0,0,1-1.7.34,3.51,3.51,0,0,1-1.56-.58,11.17,11.17,0,0,1-1.93-1.75l-2.36-2.56a8.46,8.46,0,0,1-1.71-2.46,3.36,3.36,0,0,1-.08-2.26,5.18,5.18,0,0,1,1.56-2.32,6.41,6.41,0,0,1,2-1.32,3.86,3.86,0,0,1,1.87-.26,3.76,3.76,0,0,1,1.48.51A8.66,8.66,0,0,1,185.83,140.79Zm-3.74,2.06a4.38,4.38,0,0,0-1-.89.57.57,0,0,0-.71.66,4.06,4.06,0,0,0,.8,1l4.17,4.52a3.87,3.87,0,0,0,.94.83.47.47,0,0,0,.55-.11.48.48,0,0,0,.18-.52,3.24,3.24,0,0,0-.69-.93Z" transform="translate(-137.83 -96.51)" fill="#fff"/><path d="M195.72,127.52l7.82,11.13-3.45,2.43-.59-1a2.88,2.88,0,0,1-.28,1.45,3,3,0,0,1-1,1.12,3.26,3.26,0,0,1-1.45.62,2.16,2.16,0,0,1-1.25-.19,3.56,3.56,0,0,1-.95-.72c-.26-.29-.73-.92-1.4-1.88L187.9,133l3.39-2.38,5.33,7.58a9.82,9.82,0,0,0,1.16,1.49.49.49,0,0,0,.6-.06c.25-.18.35-.37.28-.57a13.12,13.12,0,0,0-1.07-1.67l-5.26-7.49Z" transform="translate(-137.83 -96.51)" fill="#fff"/><path d="M205.25,122l.7,1.66a3.09,3.09,0,0,1,1.34-3l2.27,4.22a3.5,3.5,0,0,0-1.33,1.06,1.33,1.33,0,0,0-.17,1.07,15.83,15.83,0,0,0,1.09,2.28L211.7,134l-3.65,2-6.45-12Z" transform="translate(-137.83 -96.51)" fill="#fff"/><path d="M240.62,114.9l-4.24.83-.56-2.83a5.37,5.37,0,0,0-.43-1.52.61.61,0,0,0-.66-.18c-.35.07-.55.23-.59.5a5.61,5.61,0,0,0,.17,1.64l1.49,7.56a5.26,5.26,0,0,0,.44,1.52.6.6,0,0,0,.71.24.61.61,0,0,0,.55-.48,6.33,6.33,0,0,0-.19-1.74l-.41-2,4.24-.84.13.64a12.72,12.72,0,0,1,.34,3.66A3.73,3.73,0,0,1,240.4,124a5.58,5.58,0,0,1-2.86,1.39,6.42,6.42,0,0,1-3.2-.07,3.37,3.37,0,0,1-2-1.55,12.81,12.81,0,0,1-1.09-3.51l-.94-4.76a22.87,22.87,0,0,1-.4-2.67,3.83,3.83,0,0,1,.39-1.83,4,4,0,0,1,1.41-1.61,6.1,6.1,0,0,1,2.34-1,6,6,0,0,1,3.23.12,3.57,3.57,0,0,1,2,1.48,11,11,0,0,1,1,3.29Z" transform="translate(-137.83 -96.51)" fill="#fff"/><path d="M256.49,114.38l.12,3.34a14.49,14.49,0,0,1-.09,2.69,3.79,3.79,0,0,1-.73,1.63,3.61,3.61,0,0,1-1.51,1.15,6.25,6.25,0,0,1-2.17.43,7.89,7.89,0,0,1-2.34-.22,3.15,3.15,0,0,1-1.51-.86,3.47,3.47,0,0,1-.8-1.45,10.5,10.5,0,0,1-.32-2.59L247,115a8.62,8.62,0,0,1,.31-3,3.4,3.4,0,0,1,1.41-1.76,5.19,5.19,0,0,1,2.71-.74,5.92,5.92,0,0,1,2.4.33,3.74,3.74,0,0,1,1.58,1,3.8,3.8,0,0,1,.8,1.35A8.4,8.4,0,0,1,256.49,114.38Zm-4.17-.87a4.84,4.84,0,0,0-.16-1.32.47.47,0,0,0-.49-.25.49.49,0,0,0-.49.29,4.21,4.21,0,0,0-.07,1.32l.22,6.14a3.93,3.93,0,0,0,.16,1.25.47.47,0,0,0,.49.27.46.46,0,0,0,.48-.28,3.51,3.51,0,0,0,.08-1.15Z" transform="translate(-137.83 -96.51)" fill="#fff"/><path d="M272.94,111.18l-1.78,13.49-4.17-.55.21-1.11a2.91,2.91,0,0,1-1.18.88,2.83,2.83,0,0,1-1.49.15,3.28,3.28,0,0,1-1.49-.52,2.06,2.06,0,0,1-.78-1,3.15,3.15,0,0,1-.22-1.17c0-.39.08-1.17.24-2.33l1.19-9.1,4.11.54-1.21,9.18a11.44,11.44,0,0,0-.15,1.89c0,.2.2.32.49.36s.5,0,.58-.23a11.61,11.61,0,0,0,.35-2l1.19-9.08Z" transform="translate(-137.83 -96.51)" fill="#fff"/><path d="M284.25,114.05l-.45,1.17a3.18,3.18,0,0,1,1.39-.73,3,3,0,0,1,1.55.11,2.73,2.73,0,0,1,1.5,1,2.18,2.18,0,0,1,.44,1.47,11.53,11.53,0,0,1-.59,2.49l-2.93,9.07-3.94-1.27,2.89-9a9,9,0,0,0,.44-1.66q0-.31-.39-.45a.52.52,0,0,0-.64.17,9.42,9.42,0,0,0-.69,1.77L280,127l-3.95-1.27,4.18-12.95Z" transform="translate(-137.83 -96.51)" fill="#fff"/><path d="M300.52,118.68l-.94,1.93,1,.49-.94,1.94-1-.49-3.18,6.55a3.88,3.88,0,0,0-.53,1.4c0,.14.36.35,1,.65l-1,2-1.5-.73a11.56,11.56,0,0,1-1.77-1,2.21,2.21,0,0,1-.72-1,1.85,1.85,0,0,1-.09-1.13,16.36,16.36,0,0,1,1-2.37l3-6.22-.8-.39.94-1.93.8.39.94-1.93Z" transform="translate(-137.83 -96.51)" fill="#fff"/><path d="M309.73,126.19l-1.11,1.41a3.11,3.11,0,0,1,3.3-.28l-2.61,4a3.54,3.54,0,0,0-1.57-.66,1.31,1.31,0,0,0-1,.36,15.89,15.89,0,0,0-1.48,2.06l-2.93,4.5-3.48-2.26,7.43-11.41Z" transform="translate(-137.83 -96.51)" fill="#fff"/><path d="M323.81,137.32,316.46,144c-1.16,1.06-2,1.76-2.44,2.1a3.46,3.46,0,0,1-1.4.65,2.53,2.53,0,0,1-1.46-.19,8.47,8.47,0,0,1-2.06-1.44l-1.9-1.65,1.42-1.64a4.9,4.9,0,0,0,1,.74.41.41,0,0,0,.49-.15c.07-.08.32-.5.74-1.24l5.75-10.09,2.84,2.47-5,7.83,6.52-6.5Z" transform="translate(-137.83 -96.51)" fill="#fff"/><path d="M341.59,153.47l4.06,6.08-2.76,1.85-1.67-2.49-2.61,1.74,1.47,2.22-2.62,1.75L336,162.4l-5.8,3.87-2.4-3.59Z" transform="translate(-137.83 -96.51)" fill="#fff"/><path d="M343.33,172.34l-1.74-3.48.82-.41a6.45,6.45,0,0,1,2.34-.76,3.37,3.37,0,0,1,2,.63,5.56,5.56,0,0,1,1.86,2.25,5.5,5.5,0,0,1,.75,3.17,2.83,2.83,0,0,1-1.06,2,28.78,28.78,0,0,1-3.88,2.19L338.32,181l-1.8-3.61,1.08-.54a2.8,2.8,0,0,1-1.42-.38,2.74,2.74,0,0,1-1-1.12,3.48,3.48,0,0,1-.35-2.06c.09-.72.75-1.39,2-2l1-.5a3.3,3.3,0,0,1,2.08-.51,7.1,7.1,0,0,1,2.22,1.56,6.87,6.87,0,0,0,1.94,1.47,2.78,2.78,0,0,0,1.08-.37,4,4,0,0,0,1.17-.77.54.54,0,0,0,.05-.61c-.12-.25-.28-.37-.48-.35a5.59,5.59,0,0,0-1.3.54Zm-1.08,2a3.08,3.08,0,0,0-1.61-.49,4.93,4.93,0,0,0-1.33.49,4.06,4.06,0,0,0-1.16.74.55.55,0,0,0,0,.63c.12.23.26.34.44.34a3.71,3.71,0,0,0,1.19-.46Z" transform="translate(-137.83 -96.51)" fill="#fff"/><path d="M350.71,192.06l-1.07-3.75,1.51-.43a3.11,3.11,0,0,0,1-.44.48.48,0,0,0,.14-.55.47.47,0,0,0-.38-.39,3.08,3.08,0,0,0-1.13.19l-6.18,1.76a2.38,2.38,0,0,0-1,.48.59.59,0,0,0-.2.62.55.55,0,0,0,.52.44,4.5,4.5,0,0,0,1.42-.25l1.56-.44,1,3.55a19.44,19.44,0,0,1-2.38.55,3.86,3.86,0,0,1-1.8-.2,3.57,3.57,0,0,1-1.65-1.1,5.59,5.59,0,0,1-1.06-2.1,5.47,5.47,0,0,1-.18-2.84,3.3,3.3,0,0,1,1.22-1.85,8.67,8.67,0,0,1,2.84-1.25l3.72-1.06a7.44,7.44,0,0,1,2.61-.38,3.39,3.39,0,0,1,1.92,1,5.92,5.92,0,0,1,1.52,5.32,3.42,3.42,0,0,1-1.25,1.95A9.18,9.18,0,0,1,350.71,192.06Z" transform="translate(-137.83 -96.51)" fill="#fff"/><path d="M351.1,207.66l-.62-5.33-2.93.35a3.14,3.14,0,0,0-1.16.27.51.51,0,0,0-.21.54.62.62,0,0,0,.43.58,3.73,3.73,0,0,0,1.37,0l1.79-.21.45,3.9-1,.12a9.14,9.14,0,0,1-2,.07,4.16,4.16,0,0,1-1.52-.57,3.77,3.77,0,0,1-1.32-1.34,5.79,5.79,0,0,1-.64-2.19,6.45,6.45,0,0,1,.11-2.35,3.63,3.63,0,0,1,.85-1.67,3.67,3.67,0,0,1,1.35-.94,9.79,9.79,0,0,1,2.28-.48l3.94-.46a6.71,6.71,0,0,1,2.85.15,3.32,3.32,0,0,1,1.75,1.38,5.58,5.58,0,0,1,.84,2.45,5.69,5.69,0,0,1-.32,2.93,3.65,3.65,0,0,1-1.56,1.78,8.12,8.12,0,0,1-3,.81Zm1.72-4.38,1-.12a5,5,0,0,0,1.35-.27.46.46,0,0,0,.25-.49c0-.29-.14-.45-.32-.5a5.3,5.3,0,0,0-1.42.06l-1,.12Z" transform="translate(-137.83 -96.51)" fill="#fff"/><path d="M219.62,282.28v16.6h-4.14V290a16,16,0,0,0-.09-2.32.85.85,0,0,0-.51-.59,5.34,5.34,0,0,0-1.85-.2h-.41v-1.93a7.58,7.58,0,0,0,4.56-2.66Z" transform="translate(-137.83 -96.51)"/><path d="M229.7,282.28v2.16h-4.27v-2.16Zm0,3v13.61h-4.27V285.27Z" transform="translate(-137.83 -96.51)"/><path d="M239.6,285.27l-.07,1.25a3,3,0,0,1,1.1-1.12,2.93,2.93,0,0,1,1.5-.38,2.81,2.81,0,0,1,1.74.51,2.18,2.18,0,0,1,.88,1.26,11.67,11.67,0,0,1,.19,2.55v9.54H240.8v-9.43a9,9,0,0,0-.09-1.71.49.49,0,0,0-.52-.31.51.51,0,0,0-.55.36,8.61,8.61,0,0,0-.11,1.89v9.2h-4.15V285.27Z" transform="translate(-137.83 -96.51)"/><path d="M260.55,292a35.4,35.4,0,0,1-.12,3.54,3.9,3.9,0,0,1-.73,1.9,3.94,3.94,0,0,1-1.68,1.32,6,6,0,0,1-2.46.47,6.21,6.21,0,0,1-2.39-.44,4,4,0,0,1-2.48-3.2c-.08-.69-.12-1.88-.12-3.59v-2.84c0-1.67,0-2.85.11-3.55a4.05,4.05,0,0,1,.74-1.9,4,4,0,0,1,1.68-1.32,6,6,0,0,1,2.46-.46,6.21,6.21,0,0,1,2.39.43,4,4,0,0,1,2.48,3.21,35.9,35.9,0,0,1,.12,3.59Zm-4.31-5.46a5.35,5.35,0,0,0-.13-1.48.52.52,0,0,0-.53-.32.6.6,0,0,0-.52.26,3.68,3.68,0,0,0-.18,1.54v7.75a7.55,7.55,0,0,0,.12,1.79.52.52,0,0,0,.55.34.53.53,0,0,0,.56-.39,8.21,8.21,0,0,0,.13-1.86Z" transform="translate(-137.83 -96.51)"/><path d="M270.46,285.27l-.08,1.25a3.06,3.06,0,0,1,1.11-1.12A2.93,2.93,0,0,1,273,285a2.81,2.81,0,0,1,1.74.51,2.21,2.21,0,0,1,.87,1.26,11.51,11.51,0,0,1,.2,2.55v9.54h-4.15v-9.43a9,9,0,0,0-.09-1.71.47.47,0,0,0-.51-.31.5.5,0,0,0-.55.36,8.35,8.35,0,0,0-.12,1.89v9.2h-4.14V285.27Z" transform="translate(-137.83 -96.51)"/><path d="M290.8,292.32h-5.36v2.94a3.55,3.55,0,0,0,.13,1.19.52.52,0,0,0,.52.26.62.62,0,0,0,.63-.35,4,4,0,0,0,.16-1.37V293.2h3.92v1a9.54,9.54,0,0,1-.15,1.94,4.11,4.11,0,0,1-.75,1.45,3.65,3.65,0,0,1-1.48,1.15,5.69,5.69,0,0,1-2.25.38,6.61,6.61,0,0,1-2.32-.37,3.77,3.77,0,0,1-1.56-1.05,3.87,3.87,0,0,1-.78-1.45,9.62,9.62,0,0,1-.21-2.31v-4a6.82,6.82,0,0,1,.48-2.82,3.36,3.36,0,0,1,1.58-1.58,6.29,6.29,0,0,1,5.4.12,3.67,3.67,0,0,1,1.59,1.75,8.32,8.32,0,0,1,.45,3.07Zm-4.15-2.22v-1a5.34,5.34,0,0,0-.11-1.37.46.46,0,0,0-.46-.31q-.43,0-.54.27a5.89,5.89,0,0,0-.1,1.41v1Z" transform="translate(-137.83 -96.51)"/><circle cx="112" cy="110.45" r="68.37"/><path d="M232.18,212.82a29.07,29.07,0,0,1-2.59-2.5c-.49-.63-1.41-.8-1.9-1.06S224,208,223.2,208.5s-1.82.88-2.23,0-.6-1-1.17-1.15-.28-.8-.32-1.39-.37-1.23-.77-.81-1.78,1.53-2,1-1.18-2.84.28-3.26a3.51,3.51,0,0,1,3,.21c.36.38.64,1.44,1.09,1.31s.2-.94.36-1.61,1.22-1.56,1.7-2.5.57-1.48,1.17-1.74a6.48,6.48,0,0,0,1.5-1,20.39,20.39,0,0,1,1.79-1,5,5,0,0,1,2.25-.81c.49.13.81,0,.41-.76s-.93-2.88-1.7-3.86a6.08,6.08,0,0,1-1.21-2.16c-.37-.93-.77-1.74-1.06-1.1s-.88,1.49-1.21.67-.28-.76-.69-1.14a2.71,2.71,0,0,0-1.29-.64c-.56-.17-1.13.05-1.09.6s-.53,1.53-.16,2.25.69,1.49.2,1.74,0,1.78-.49,1.73-.72,0-.72-.51.24-1.39-.65-1.39a3.41,3.41,0,0,1-2.07-.93c-.64-.47-1.17-.22-1-1.28s-.07-1.44.65-2,.89-.93,1.42-.68.88.26,1.21,0,.93-.17.93-.55-.69-.38-.6-1,.4-.3.52-1.36-.77-2.67-1.66-2.46-2.26,1.45-2.54.89-.86-.29-1.95.09-5.62-.38-5.94-.77c0,0-.77-.54-1.18-.25a5.56,5.56,0,0,1-2.51.09c-.49-.09-.93.54-1.53.34a25.06,25.06,0,0,1-3.24-1c-.49-.34-1.22-.34-1.53-.51s-1.51-.25-1.74.08a18.87,18.87,0,0,1-1.58,1.36c-.44.43-1,.35-.52,1.24s-1.14,1.44-.73,2.41-.09,3.6,1.53,4.11,3,.8,3.88,0,2.35-.76,2.8.09.69,2.11,2.14,2.83,2.71,2.81,2.63,3.74,0,4,1.53,5.81,3,5,3.15,4.24.13-1.53.46-1,1.17,2.25,2.54,2.54,2.07.38,2.59.9a5,5,0,0,0,1.54,1.06,6.56,6.56,0,0,1,2.22,1.53,2.38,2.38,0,0,1-.12,2,2.65,2.65,0,0,0-.21,2.25c.41.72,1.26,2.8,1.95,3.26a2.37,2.37,0,0,1,1.21,2.29,63.25,63.25,0,0,0-.85,6.61c.09,1-.92,4.36-.12,5.72a3,3,0,0,0,2.8,1.61c.6-.17.12-.21-.17-.85a2.4,2.4,0,0,1,.08-2,1.86,1.86,0,0,0,.17-1.61,1.55,1.55,0,0,1,.32-1.57c.41-.51,2.11-1.86,2.63-2.46s3.85-4.66,4.29-5a4.7,4.7,0,0,0,1.78-2.41c.33-1.28,1.5-3.78.69-4.42S232.3,212.9,232.18,212.82Z" transform="translate(-137.83 -96.51)" fill="url(#radial-gradient)"/><path d="M240.27,177.05c.23-.45.79-1.58,1.09-2.2H228.54a19.91,19.91,0,0,1,.61,4.23c-.13,1.19.24.77.56,1.24a1.94,1.94,0,0,1,0,1.73,4.58,4.58,0,0,0,.33,3.23c.64,1.44,1.41,3.26,2.06,3.34s.49,1,.94.68.52-1.1.89-2.2.36-1.91,1.29-2.46a29.24,29.24,0,0,0,4.08-3c.57-.64,1.22-.89,1-2A4.51,4.51,0,0,1,240.27,177.05Z" transform="translate(-137.83 -96.51)" fill="url(#radial-gradient-2)"/><path d="M303.37,182.05c-.49-.34-3.4-2.67-4.66-2.37s-3.47-.68-3.84-.9a19.43,19.43,0,0,0-4.93-1.18,26.22,26.22,0,0,1-5.46-1.35c-1.38-.6-2.55-3.52-5.17-3.06-.34.07-3.52.51-4.33,1.24s-1.17,1.56-1.62,1.73-1.74.09-1.74.72.45,2.59-.07,2.21-1.06-1.27-1.3-.6-.65,1.07-.89.81a1.52,1.52,0,0,0-1.62.42,5.21,5.21,0,0,1-2.42,1.53,4.18,4.18,0,0,0-1.34.64c-.36.17-3.12,1.44-3.64,1s-.68-.16-1-.08a2.83,2.83,0,0,1-1.57-.93c-.61-.76-.73-.51-1.42-1.23s-.85-1.44-1.54-1.14-3.59,3.3-4.73,4.65-3.15,2.76-2.14,3.73,1.54.85,1.66,1.4a5.44,5.44,0,0,0,.41,1.36c.16.21,1.13,1,1.61-.05s.57-1.73,1.14-1.56.68.55.4,1.31-.48,2-1.46,1.91-2-.64-2.35-.51-.51.42-.88.72-1.5,1.69-2.27,1.9-1.69,0-1.17.68,1.29,2,.57,2-1.94-.17-2,.55-.41,1.15-.25,1.66.69,1.48,1.33,1.14,1.91-.68,2.23-1.44.69-1.61,1.5-1.57,2.75,1.1,2.63,1.49-.52,1.27,0,1,.89-.64,1.17-.76.65.42.77.63.93.64,1.09,0,.33-.17.81,0,1.94.38,2.14.56a.87.87,0,0,1,.08,1.35,1.52,1.52,0,0,1-2.14.43c-.94-.51-1.95.42-3-.09s-.57-1.23-1.83-1.73-4.08.12-5,.37-.93.35-1.29.77-2.75,3.17-2.75,4.74.88,5.81,3.76,5.39,4.61-.18,4.29.67-.16,1.06.36,2,1.74,7.45,1.94,8.51-.16,2.42,1.18,2.2,2.75-.54,3.31-1.77.66-2.63,1.38-3.35,1.62-.72,1.7-1.74-.2-3.43.28-4,2.75-3.09,3-4.11.57-1.27-.36-1.27-2.51-.12-3-1a19.63,19.63,0,0,1-1.49-2.84c0-.38.64-.34,1,.47s1.46,3.22,2.75,2.7,3.12-1.09,3.16-1.9-.57-1.74-1.22-1.69-1.33-.43-1.33-.89.11-.29.88,0,1,.8,2.19.89,2.51,1.23,3.15,1.74,1.78,4,2.07,4.32.61.34.89-.34a14.27,14.27,0,0,1,2.18-3.44c.69-.59.73-1.39,1.13-.88s2.14,1.78,2.27,2.54-.08,2.42.28,1.91.65-1.57,1-1.1.33,1.19,1.1.64,2.1-.77,1.37-1.95-.24-1.91.21-2,3.48-.6,3.56-2.26-1.05-2.54-.51-3.39,1.28-1.61,1.45-1.1-.41,2.16.32,1.91,1.58-.25,1.58-.77-.17-1.78.16-2.11,2.71-2.59,3-3.48.81-1.65.36-2.33-1.21-.47-.6-1.31a4,4,0,0,1,2.39-1.7c2.45-.21,1.76,2.83,1.8,3.5s.05,2.38.41,1.53a7.93,7.93,0,0,1,1.51-2.61c.73-.72,1.13-1.18,1.18-1.82s.07-.85.77-1.19,3.72-1.52,4-2.33-.36-1.53.36-1.48,1.42.85,1.78.42,1.18-1.18,1.13-1.6S303.86,182.39,303.37,182.05Z" transform="translate(-137.83 -96.51)" fill="url(#radial-gradient-3)"/><path d="M290.31,196.29a11.29,11.29,0,0,0-.73,1.78,5.91,5.91,0,0,1-.61,1.57c-.36.72-1,.8-1.58,1.27a2.53,2.53,0,0,0-.77,1.4c-.52.72,2.15-1,3.07-1.57s.7-1.19.78-2.08a1.69,1.69,0,0,1,.72-1.4c.4-.38.08-1.14-.11-1.69S290.55,195.74,290.31,196.29Z" transform="translate(-137.83 -96.51)" fill="url(#radial-gradient-4)"/><path d="M282,215.53c.28-.21.07-.68.52-.59s.84.34,1.38,0,1-.17.89-.67,0-1.19-.12-1.61-.85-.56-1.38-.09-1.25,1.19-1.25.93.32-.93.16-1.35.08-.8-.73-.47-1.25.26-1.53.73-.61,1.27-1.09.76a23.5,23.5,0,0,0-1.91-1.57c-.11-.13-1.73-1.44-1.16-.55s1.41,2.42,1.82,3,.84,1.19,1.33.89.57-.38,1.22,0S281.73,215.74,282,215.53Z" transform="translate(-137.83 -96.51)" fill="url(#radial-gradient-5)"/><path d="M291.93,214.35c-.78-.34-.45-.64-1.38-.81s-1.7,0-1.95-.16-1.45-.6-1.29,0,1.25.76,1.53.93-.4.55.12.84.89.85,1.58.68.93.21,1.49.3,1.14-.09.9-.34a1.18,1.18,0,0,1-.36-.89C292.61,214.6,292.69,214.68,291.93,214.35Z" transform="translate(-137.83 -96.51)" fill="url(#radial-gradient-6)"/><path d="M291.52,218.12c-.28-.85-1-2.41-1.13-1.66a2,2,0,0,1-1.66,1.27c-.37,0-.16-.42-.16-.76s-.22-.68-1.14-.43-1.13,1.15-1.38,1.07a1.16,1.16,0,0,0-1.29.21c-.4.47-.77,1.36-1.25,1.53s-2.11.38-2.11,1.06.41,1.69.37,2.25-.78,1.82.2,2.2a1.68,1.68,0,0,0,1.62-.08c.65-.34,3.44-1.23,3.8-.94s1,1,1.22,1.15c.51.3.65,1,1.34,1.18a7.41,7.41,0,0,0,1.49.26,2.11,2.11,0,0,0,1.54-.94c.24-.6.69-2,.89-2.67a1.87,1.87,0,0,0-.2-2A9.23,9.23,0,0,1,291.52,218.12Z" transform="translate(-137.83 -96.51)" fill="url(#radial-gradient-7)"/></svg>